<?xml version="1.0" encoding="UTF-8" standalone="no"?>
<!-- Created with Inkscape (http://www.inkscape.org/) -->

<svg
   xmlns:dc="http://purl.org/dc/elements/1.1/"
   xmlns:cc="http://creativecommons.org/ns#"
   xmlns:rdf="http://www.w3.org/1999/02/22-rdf-syntax-ns#"
   xmlns:svg="http://www.w3.org/2000/svg"
   xmlns="http://www.w3.org/2000/svg"
   xmlns:sodipodi="http://sodipodi.sourceforge.net/DTD/sodipodi-0.dtd"
   xmlns:inkscape="http://www.inkscape.org/namespaces/inkscape"
   width="1052.3622"
   height="744.09448"
   id="svg3797"
   version="1.1"
   inkscape:version="0.48.3.1 r9886"
   sodipodi:docname="planet.svg">
  <defs
     id="defs3799">
    <marker
       inkscape:stockid="Arrow2Lstart"
       orient="auto"
       refY="0.0"
       refX="0.0"
       id="Arrow2Lstart"
       style="overflow:visible">
      <path
         id="path4699"
         style="fill-rule:evenodd;stroke-width:0.62500000;stroke-linejoin:round"
         d="M 8.7185878,4.0337352 L -2.2072895,0.016013256 L 8.7185884,-4.0017078 C 6.9730900,-1.6296469 6.9831476,1.6157441 8.7185878,4.0337352 z "
         transform="scale(1.1) translate(1,0)" />
    </marker>
    <marker
       inkscape:stockid="Arrow2Lend"
       orient="auto"
       refY="0.0"
       refX="0.0"
       id="Arrow2Lend"
       style="overflow:visible;">
      <path
         id="path4702"
         style="fill-rule:evenodd;stroke-width:0.62500000;stroke-linejoin:round;"
         d="M 8.7185878,4.0337352 L -2.2072895,0.016013256 L 8.7185884,-4.0017078 C 6.9730900,-1.6296469 6.9831476,1.6157441 8.7185878,4.0337352 z "
         transform="scale(1.1) rotate(180) translate(1,0)" />
    </marker>
    <marker
       inkscape:stockid="Arrow2Lend"
       orient="auto"
       refY="0"
       refX="0"
       id="Arrow2Lend-1"
       style="overflow:visible">
      <path
         inkscape:connector-curvature="0"
         id="path4702-8"
         style="fill-rule:evenodd;stroke-width:0.625;stroke-linejoin:round"
         d="M 8.7185878,4.0337352 -2.2072895,0.01601326 8.7185884,-4.0017078 c -1.7454984,2.3720609 -1.7354408,5.6174519 -6e-7,8.035443 z"
         transform="matrix(-1.1,0,0,-1.1,-1.1,0)" />
    </marker>
  </defs>
  <sodipodi:namedview
     id="base"
     pagecolor="#ffffff"
     bordercolor="#666666"
     borderopacity="1.0"
     inkscape:pageopacity="0.0"
     inkscape:pageshadow="2"
     inkscape:zoom="0.7"
     inkscape:cx="557.25622"
     inkscape:cy="388.49301"
     inkscape:document-units="px"
     inkscape:current-layer="layer1"
     showgrid="false"
     inkscape:window-width="1301"
     inkscape:window-height="744"
     inkscape:window-x="65"
     inkscape:window-y="24"
     inkscape:window-maximized="1"
     showguides="true"
     inkscape:guide-bbox="true" />
  <metadata
     id="metadata3802">
    <rdf:RDF>
      <cc:Work
         rdf:about="">
        <dc:format>image/svg+xml</dc:format>
        <dc:type
           rdf:resource="http://purl.org/dc/dcmitype/StillImage" />
        <dc:title></dc:title>
      </cc:Work>
    </rdf:RDF>
  </metadata>
  <g
     inkscape:label="Layer 1"
     inkscape:groupmode="layer"
     id="layer1"
     transform="translate(0,-308.2677)">
    <path
       sodipodi:type="arc"
       style="opacity:0.6;color:#000000;fill:none;stroke:#000000;stroke-width:1;stroke-linecap:round;stroke-linejoin:miter;stroke-miterlimit:4;stroke-opacity:1;stroke-dasharray:none;stroke-dashoffset:0;marker:none;visibility:visible;display:inline;overflow:visible;enable-background:accumulate"
       id="path4524"
       sodipodi:cx="288.57144"
       sodipodi:cy="469.50504"
       sodipodi:rx="437.14285"
       sodipodi:ry="437.14285"
       d="M 725.71429,469.50504 A 437.14285,437.14285 0 0 1 211.8436,899.86153"
       transform="matrix(0.99496895,0,0,0.24490896,203.31598,435.32059)"
       sodipodi:start="0"
       sodipodi:end="1.7472315"
       sodipodi:open="true" />
    <path
       style="fill:none;stroke:#000000;stroke-width:1;stroke-linecap:round;stroke-linejoin:miter;stroke-miterlimit:4;stroke-opacity:1;stroke-dasharray:none;marker-end:url(#Arrow2Lend-1)"
       d="m 902.93025,598.80368 c -26.01142,20.45559 -202.53559,75.76145 -298.50008,30.30459 -95.96449,-45.45687 6.06092,-47.47717 6.06092,-47.47717 0,0 153.54318,-4.04061 190.91883,-19.1929"
       id="path6499"
       inkscape:connector-curvature="0"
       sodipodi:nodetypes="cscc" />
    <g
       id="g3814"
       transform="matrix(-0.01437458,0.43607676,-0.43607676,-0.01437458,387.84298,643.5107)"
       style="stroke:#000000;stroke-width:2.29192948;stroke-linecap:round;stroke-miterlimit:4;stroke-opacity:1;stroke-dasharray:2.2919294, 4.58385881;stroke-dashoffset:0">
      <path
         style="fill:none;stroke:#000000;stroke-width:2.29192948;stroke-linecap:round;stroke-linejoin:miter;stroke-miterlimit:4;stroke-opacity:1;stroke-dasharray:2.2919294, 4.58385881;stroke-dashoffset:0"
         d="m 649.22209,187.17453 c -0.29263,-0.13072 -0.50432,-0.1783 -0.50432,-0.1783 l -86.13094,6.476 c -0.13851,0.0255 -0.30597,0.27233 -0.17881,0.43443 l 1.77616,2.26612 c 0,0 -0.51464,0.11239 -0.61275,0.32555 l -2.23169,4.82264 c -0.0843,0.18273 -0.15007,0.34965 -0.31899,0.36551 l -14.74909,1.38479 0.36851,-1.3162 c 0.2938,-1.06459 0.0247,-2.27621 -0.0188,-2.79502 -0.0228,-0.27262 -3.5057,-4.32671 -7.03006,-8.3662 1.20359,-0.88601 2.27977,-1.63029 3.07471,-2.07507 1.17098,-0.65518 1.91786,-0.82263 2.31499,-0.74228 0.54229,0.10971 0.95268,0.30195 1.44262,0.46549 0.48994,0.16354 1.06514,0.27987 1.78966,0.11376 0.54831,-0.12571 1.84869,-0.24857 3.07218,-0.37001 0.61175,-0.0607 1.21899,-0.1229 1.7317,-0.19332 0.5127,-0.0704 0.92109,-0.13315 1.24209,-0.2599 0.79863,-0.31532 4.43414,-1.51119 4.43414,-1.51119 a 0.50005,0.50005 0 0 0 -0.0346,-0.99205 0.50005,0.50005 0 0 0 -0.26524,0.0437 c 0,0 -3.55669,1.13762 -4.50402,1.51166 -0.11548,0.0456 -0.51794,0.13553 -1.00489,0.20241 -0.48696,0.0669 -1.09504,0.14669 -1.70365,0.2071 -1.21724,0.12082 -2.46356,0.21959 -3.18389,0.38474 -0.54411,0.12475 -0.85676,0.0726 -1.25823,-0.0614 -0.40148,-0.13397 -0.88133,-0.38437 -1.5548,-0.52064 -0.81864,-0.16561 -1.74383,0.15639 -2.99902,0.85868 -0.87264,0.48824 -2.00355,1.25889 -3.26961,2.18819 -2.82581,-3.23187 -5.77308,-6.60313 -6.01391,-6.89159 -0.56356,-0.67504 -1.77805,-1.65517 -2.73687,-1.7286 -0.95883,-0.0734 -3.79315,1.22938 -4.35001,1.55256 -0.55685,0.32318 -1.48784,-1.25381 -2.56485,-1.08686 -0.0186,0.003 -0.0621,0.0242 -0.0837,0.0285 -1.24558,-5.54468 -5.20291,-10.56372 -10.72165,-12.82763 -8.05973,-3.30627 -16.38401,0.54765 -18.58576,8.62203 -1.61458,5.9211 0.4951,12.46461 4.92068,16.83568 -0.0405,0.006 -0.2356,0.0393 -0.26524,0.0437 -0.34924,0.0523 -1.39588,-0.0109 -2.36245,-0.082 -0.48328,-0.0355 -0.97394,-0.0704 -1.3842,-0.0885 -0.41025,-0.0182 -0.69843,-0.0262 -0.99204,0.0346 -0.15787,0.0327 -0.7094,-0.0135 -1.35709,-0.2145 -0.64768,-0.201 -1.41819,-0.52297 -2.21407,-0.87958 a 0.50024408,0.50024408 0 1 0 -0.4132,0.91117 c 0.81838,0.36669 1.62959,0.68623 2.34004,0.90669 0.71044,0.22047 1.2716,0.38054 1.81864,0.26731 0.0588,-0.0122 0.39656,-0.0503 0.78242,-0.0332 0.38585,0.0171 0.85811,0.0672 1.34236,0.1028 0.9685,0.0712 1.93407,0.17608 2.57207,0.0806 0.13357,-0.02 0.79185,-0.15448 1.07477,-0.20288 1.39905,1.20125 2.98202,2.20032 4.72941,2.91713 0.95613,0.39218 1.91825,0.69383 2.871,0.88915 -0.23134,0.49912 -0.59192,1.34565 -0.59192,1.34565 l -0.24836,2.55923 2.59019,4.86014 -23.72467,2.99635 c -0.40515,0.0509 -0.81808,-0.17337 -1.19023,-0.3414 l -8.52304,-3.84202 c -0.3491,-0.15758 -0.74929,-0.36873 -1.11989,-0.27199 l -1.63236,0.41625 -1.19099,-2.53559 c -0.12994,-0.27463 -0.49695,-0.45557 -0.79951,-0.42783 -46.43723,4.25089 -92.68112,7.81203 -139.20135,14.12762 -0.43741,0.0416 -0.92155,0.54538 -0.90181,0.98435 l 0.90326,20.04913 c 0.0481,1.07034 1.93504,0.95133 1.93504,0.95133 l 78.98393,-9.36292 c 0.71043,-0.0843 1.39063,0.0791 1.4868,0.80061 l 0.19191,1.52207 c 0.049,0.36784 0.57283,0.68577 0.94064,0.63657 l 31.2775,-4.19307 c 0.32249,-0.0453 0.67567,-0.49323 0.56763,-0.80043 l -0.3279,-0.96212 c -0.15741,-0.44758 0.0241,-1.29332 0.49401,-1.35897 l 32.56096,-4.5371 c 0.21686,-0.0313 0.49753,-0.28856 0.41597,-0.49194 l -0.4548,-1.12898 1.26873,-0.45574 3.82241,-7.27907 c 0.12209,-0.23247 0.3797,-0.41604 0.63986,-0.45152 l 23.9885,-3.24969 1.55696,2.92446 -0.8929,2.31199 5.01053,11.48237 c 0.71045,1.62466 2.29178,1.60657 4.60597,1.18497 l 4.43883,-0.81244 0.46288,6.49561 c -5.20245,1.79187 -5.08837,3.68604 1.05152,4.66084 7.7235,1.22622 22.02437,0.53965 31.96604,-1.55628 9.94168,-2.09592 11.76399,-4.7965 4.04049,-6.02272 -4.76207,-0.75604 -12.02671,-0.77798 -19.23191,-0.19232 l -0.72119,-9.58252 4.31133,-15.63985 15.16834,-1.3876 c 0.26084,-0.0452 0.58334,0.12048 0.88222,0.25962 l 9.35104,4.35356 c 0.28068,0.13019 0.59951,0.31245 0.82613,0.23204 l 1.04579,-0.35642 1.81751,2.18199 c 0.18699,0.21596 0.44753,0.40844 0.64549,0.38699 l 87.19745,-9.99107 c 0.28507,-0.0327 0.67929,-0.57265 0.37184,-0.82704 l -13.12612,-10.84091 c -0.3749,-0.31017 -0.74595,-0.51913 -1.03857,-0.64989 z m -84.54452,9.62387 8.14132,9.43487 -0.65505,0.26993 c -0.14542,0.0625 -0.35961,-0.008 -0.54568,-0.0942 l -8.95843,-4.16053 c -0.27253,-0.12619 -0.7004,-0.61584 -0.57889,-0.87659 l 2.02539,-4.33208 c 0.0886,-0.18929 0.57139,-0.24142 0.57139,-0.24142 z m -24.73158,25.79754 0.5337,6.63489 c -3.78825,0.36888 -7.49836,0.89874 -10.73673,1.58146 -1.14894,0.24222 -2.18238,0.47866 -3.11166,0.73365 l -0.47526,-6.25794 12.96758,-2.3651 c 0.3022,-0.0551 0.56636,-0.16541 0.82237,-0.32696 z m -56.73597,-11.6662 c 0.33936,0.15247 0.62027,0.72613 0.45434,1.05911 l -3.32372,6.61886 -0.96212,0.3279 -6.07198,-11.37741 1.07383,-0.34263 c 0.24258,-0.0747 0.52372,-0.0111 0.75532,0.0928 l 8.07433,3.62141 z"
         id="path3953"
         inkscape:connector-curvature="0" />
      <path
         inkscape:connector-curvature="0"
         id="path3766"
         d="m 526.81579,182.46423 -18.57142,1.78571 -1.60715,18.75"
         style="color:#000000;fill:none;stroke:#000000;stroke-width:2.29192948;stroke-linecap:round;stroke-linejoin:miter;stroke-miterlimit:4;stroke-opacity:1;stroke-dasharray:2.2919294, 4.58385881;stroke-dashoffset:0;marker:none;visibility:visible;display:inline;overflow:visible;enable-background:accumulate" />
    </g>
    <path
       sodipodi:type="arc"
       style="opacity:0.6;color:#000000;fill:none;stroke:#000000;stroke-width:2;stroke-linecap:round;stroke-linejoin:miter;stroke-miterlimit:4;stroke-opacity:1;stroke-dasharray:none;stroke-dashoffset:0;marker:none;visibility:visible;display:inline;overflow:visible;enable-background:accumulate"
       id="path4332"
       sodipodi:cx="288.57144"
       sodipodi:cy="469.50504"
       sodipodi:rx="437.14285"
       sodipodi:ry="437.14285"
       d="m 725.71429,469.50504 a 437.14285,437.14285 0 1 1 -874.2857,0 437.14285,437.14285 0 1 1 874.2857,0 z"
       transform="translate(202.68893,130.53226)" />
    <path
       transform="matrix(1,0,0,0.24614734,202.68893,484.46988)"
       d="m 725.71429,469.50504 a 437.14285,437.14285 0 1 1 -874.2857,-2e-5"
       sodipodi:ry="437.14285"
       sodipodi:rx="437.14285"
       sodipodi:cy="469.50504"
       sodipodi:cx="288.57144"
       id="path4334"
       style="opacity:0.6;color:#000000;fill:none;stroke:#000000;stroke-width:1;stroke-linecap:round;stroke-linejoin:miter;stroke-miterlimit:4;stroke-opacity:1;stroke-dasharray:none;stroke-dashoffset:0;marker:none;visibility:visible;display:inline;overflow:visible;enable-background:accumulate"
       sodipodi:type="arc"
       sodipodi:start="0"
       sodipodi:end="3.1415927"
       sodipodi:open="true" />
    <path
       transform="matrix(0.17841143,0,0,1,439.77593,130.53226)"
       d="m 288.57145,906.64789 a 437.14285,437.14285 0 1 1 0,-874.285707"
       sodipodi:ry="437.14285"
       sodipodi:rx="437.14285"
       sodipodi:cy="469.50504"
       sodipodi:cx="288.57144"
       id="path4336"
       style="opacity:0.6;color:#000000;fill:none;stroke:#000000;stroke-width:1;stroke-linecap:round;stroke-linejoin:miter;stroke-miterlimit:4;stroke-opacity:1;stroke-dasharray:none;stroke-dashoffset:0;marker:none;visibility:visible;display:inline;overflow:visible;enable-background:accumulate"
       sodipodi:type="arc"
       sodipodi:start="1.5707963"
       sodipodi:end="4.712389"
       sodipodi:open="true" />
    <text
       xml:space="preserve"
       style="font-size:8.72942734px;font-style:normal;font-variant:normal;font-weight:normal;font-stretch:normal;text-align:start;line-height:125%;letter-spacing:0px;word-spacing:0px;text-anchor:start;fill:#000000;fill-opacity:1;stroke:none;font-family:Ubuntu;-inkscape-font-specification:Sans"
       x="417.60022"
       y="703.78082"
       id="text4338"
       sodipodi:linespacing="125%"><tspan
         sodipodi:role="line"
         id="tspan4340"
         x="417.60022"
         y="703.78082">0,64.5E</tspan></text>
    <g
       id="g4380"
       transform="translate(-67.866906,217.43002)">
      <g
         id="g4326"
         transform="matrix(-0.04864969,0.43359287,-0.43359287,-0.04864969,442.77804,277.95878)"
         style="stroke:#000000;stroke-width:2.29192948;stroke-linecap:round;stroke-miterlimit:4;stroke-opacity:1;stroke-dasharray:none;stroke-dashoffset:0">
        <path
           style="fill:none;stroke:#000000;stroke-width:2.29192948;stroke-linecap:round;stroke-linejoin:miter;stroke-miterlimit:4;stroke-opacity:1;stroke-dasharray:none;stroke-dashoffset:0"
           d="m 649.22209,187.17453 c -0.29263,-0.13072 -0.50432,-0.1783 -0.50432,-0.1783 l -86.13094,6.476 c -0.13851,0.0255 -0.30597,0.27233 -0.17881,0.43443 l 1.77616,2.26612 c 0,0 -0.51464,0.11239 -0.61275,0.32555 l -2.23169,4.82264 c -0.0843,0.18273 -0.15007,0.34965 -0.31899,0.36551 l -14.74909,1.38479 0.36851,-1.3162 c 0.2938,-1.06459 0.0247,-2.27621 -0.0188,-2.79502 -0.0228,-0.27262 -3.5057,-4.32671 -7.03006,-8.3662 1.20359,-0.88601 2.27977,-1.63029 3.07471,-2.07507 1.17098,-0.65518 1.91786,-0.82263 2.31499,-0.74228 0.54229,0.10971 0.95268,0.30195 1.44262,0.46549 0.48994,0.16354 1.06514,0.27987 1.78966,0.11376 0.54831,-0.12571 1.84869,-0.24857 3.07218,-0.37001 0.61175,-0.0607 1.21899,-0.1229 1.7317,-0.19332 0.5127,-0.0704 0.92109,-0.13315 1.24209,-0.2599 0.79863,-0.31532 4.43414,-1.51119 4.43414,-1.51119 a 0.50005,0.50005 0 0 0 -0.0346,-0.99205 0.50005,0.50005 0 0 0 -0.26524,0.0437 c 0,0 -3.55669,1.13762 -4.50402,1.51166 -0.11548,0.0456 -0.51794,0.13553 -1.00489,0.20241 -0.48696,0.0669 -1.09504,0.14669 -1.70365,0.2071 -1.21724,0.12082 -2.46356,0.21959 -3.18389,0.38474 -0.54411,0.12475 -0.85676,0.0726 -1.25823,-0.0614 -0.40148,-0.13397 -0.88133,-0.38437 -1.5548,-0.52064 -0.81864,-0.16561 -1.74383,0.15639 -2.99902,0.85868 -0.87264,0.48824 -2.00355,1.25889 -3.26961,2.18819 -2.82581,-3.23187 -5.77308,-6.60313 -6.01391,-6.89159 -0.56356,-0.67504 -1.77805,-1.65517 -2.73687,-1.7286 -0.95883,-0.0734 -3.79315,1.22938 -4.35001,1.55256 -0.55685,0.32318 -1.48784,-1.25381 -2.56485,-1.08686 -0.0186,0.003 -0.0621,0.0242 -0.0837,0.0285 -1.24558,-5.54468 -5.20291,-10.56372 -10.72165,-12.82763 -8.05973,-3.30627 -16.38401,0.54765 -18.58576,8.62203 -1.61458,5.9211 0.4951,12.46461 4.92068,16.83568 -0.0405,0.006 -0.2356,0.0393 -0.26524,0.0437 -0.34924,0.0523 -1.39588,-0.0109 -2.36245,-0.082 -0.48328,-0.0355 -0.97394,-0.0704 -1.3842,-0.0885 -0.41025,-0.0182 -0.69843,-0.0262 -0.99204,0.0346 -0.15787,0.0327 -0.7094,-0.0135 -1.35709,-0.2145 -0.64768,-0.201 -1.41819,-0.52297 -2.21407,-0.87958 a 0.50024408,0.50024408 0 1 0 -0.4132,0.91117 c 0.81838,0.36669 1.62959,0.68623 2.34004,0.90669 0.71044,0.22047 1.2716,0.38054 1.81864,0.26731 0.0588,-0.0122 0.39656,-0.0503 0.78242,-0.0332 0.38585,0.0171 0.85811,0.0672 1.34236,0.1028 0.9685,0.0712 1.93407,0.17608 2.57207,0.0806 0.13357,-0.02 0.79185,-0.15448 1.07477,-0.20288 1.39905,1.20125 2.98202,2.20032 4.72941,2.91713 0.95613,0.39218 1.91825,0.69383 2.871,0.88915 -0.23134,0.49912 -0.59192,1.34565 -0.59192,1.34565 l -0.24836,2.55923 2.59019,4.86014 -23.72467,2.99635 c -0.40515,0.0509 -0.81808,-0.17337 -1.19023,-0.3414 l -8.52304,-3.84202 c -0.3491,-0.15758 -0.74929,-0.36873 -1.11989,-0.27199 l -1.63236,0.41625 -1.19099,-2.53559 c -0.12994,-0.27463 -0.49695,-0.45557 -0.79951,-0.42783 -46.43723,4.25089 -92.68112,7.81203 -139.20135,14.12762 -0.43741,0.0416 -0.92155,0.54538 -0.90181,0.98435 l 0.90326,20.04913 c 0.0481,1.07034 1.93504,0.95133 1.93504,0.95133 l 78.98393,-9.36292 c 0.71043,-0.0843 1.39063,0.0791 1.4868,0.80061 l 0.19191,1.52207 c 0.049,0.36784 0.57283,0.68577 0.94064,0.63657 l 31.2775,-4.19307 c 0.32249,-0.0453 0.67567,-0.49323 0.56763,-0.80043 l -0.3279,-0.96212 c -0.15741,-0.44758 0.0241,-1.29332 0.49401,-1.35897 l 32.56096,-4.5371 c 0.21686,-0.0313 0.49753,-0.28856 0.41597,-0.49194 l -0.4548,-1.12898 1.26873,-0.45574 3.82241,-7.27907 c 0.12209,-0.23247 0.3797,-0.41604 0.63986,-0.45152 l 23.9885,-3.24969 1.55696,2.92446 -0.8929,2.31199 5.01053,11.48237 c 0.71045,1.62466 2.29178,1.60657 4.60597,1.18497 l 4.43883,-0.81244 0.46288,6.49561 c -5.20245,1.79187 -5.08837,3.68604 1.05152,4.66084 7.7235,1.22622 22.02437,0.53965 31.96604,-1.55628 9.94168,-2.09592 11.76399,-4.7965 4.04049,-6.02272 -4.76207,-0.75604 -12.02671,-0.77798 -19.23191,-0.19232 l -0.72119,-9.58252 4.31133,-15.63985 15.16834,-1.3876 c 0.26084,-0.0452 0.58334,0.12048 0.88222,0.25962 l 9.35104,4.35356 c 0.28068,0.13019 0.59951,0.31245 0.82613,0.23204 l 1.04579,-0.35642 1.81751,2.18199 c 0.18699,0.21596 0.44753,0.40844 0.64549,0.38699 l 87.19745,-9.99107 c 0.28507,-0.0327 0.67929,-0.57265 0.37184,-0.82704 l -13.12612,-10.84091 c -0.3749,-0.31017 -0.74595,-0.51913 -1.03857,-0.64989 z m -84.54452,9.62387 8.14132,9.43487 -0.65505,0.26993 c -0.14542,0.0625 -0.35961,-0.008 -0.54568,-0.0942 l -8.95843,-4.16053 c -0.27253,-0.12619 -0.7004,-0.61584 -0.57889,-0.87659 l 2.02539,-4.33208 c 0.0886,-0.18929 0.57139,-0.24142 0.57139,-0.24142 z m -24.73158,25.79754 0.5337,6.63489 c -3.78825,0.36888 -7.49836,0.89874 -10.73673,1.58146 -1.14894,0.24222 -2.18238,0.47866 -3.11166,0.73365 l -0.47526,-6.25794 12.96758,-2.3651 c 0.3022,-0.0551 0.56636,-0.16541 0.82237,-0.32696 z m -56.73597,-11.6662 c 0.33936,0.15247 0.62027,0.72613 0.45434,1.05911 l -3.32372,6.61886 -0.96212,0.3279 -6.07198,-11.37741 1.07383,-0.34263 c 0.24258,-0.0747 0.52372,-0.0111 0.75532,0.0928 l 8.07433,3.62141 z"
           id="path4328"
           inkscape:connector-curvature="0" />
        <path
           inkscape:connector-curvature="0"
           id="path4330"
           d="m 526.81579,182.46423 -18.57142,1.78571 -1.60715,18.75"
           style="color:#000000;fill:none;stroke:#000000;stroke-width:2.29192948;stroke-linecap:round;stroke-linejoin:miter;stroke-miterlimit:4;stroke-opacity:1;stroke-dasharray:none;stroke-dashoffset:0;marker:none;visibility:visible;display:inline;overflow:visible;enable-background:accumulate" />
      </g>
      <g
         style="stroke:#000000;stroke-width:2.29192948;stroke-linecap:round;stroke-miterlimit:4;stroke-opacity:1;stroke-dasharray:2.2919294, 2.2919294;stroke-dashoffset:0"
         transform="matrix(-0.04864969,0.43359287,-0.43359287,-0.04864969,424.35019,188.11468)"
         id="g4344">
        <path
           inkscape:connector-curvature="0"
           id="path4346"
           d="m 649.22209,187.17453 c -0.29263,-0.13072 -0.50432,-0.1783 -0.50432,-0.1783 l -86.13094,6.476 c -0.13851,0.0255 -0.30597,0.27233 -0.17881,0.43443 l 1.77616,2.26612 c 0,0 -0.51464,0.11239 -0.61275,0.32555 l -2.23169,4.82264 c -0.0843,0.18273 -0.15007,0.34965 -0.31899,0.36551 l -14.74909,1.38479 0.36851,-1.3162 c 0.2938,-1.06459 0.0247,-2.27621 -0.0188,-2.79502 -0.0228,-0.27262 -3.5057,-4.32671 -7.03006,-8.3662 1.20359,-0.88601 2.27977,-1.63029 3.07471,-2.07507 1.17098,-0.65518 1.91786,-0.82263 2.31499,-0.74228 0.54229,0.10971 0.95268,0.30195 1.44262,0.46549 0.48994,0.16354 1.06514,0.27987 1.78966,0.11376 0.54831,-0.12571 1.84869,-0.24857 3.07218,-0.37001 0.61175,-0.0607 1.21899,-0.1229 1.7317,-0.19332 0.5127,-0.0704 0.92109,-0.13315 1.24209,-0.2599 0.79863,-0.31532 4.43414,-1.51119 4.43414,-1.51119 a 0.50005,0.50005 0 0 0 -0.0346,-0.99205 0.50005,0.50005 0 0 0 -0.26524,0.0437 c 0,0 -3.55669,1.13762 -4.50402,1.51166 -0.11548,0.0456 -0.51794,0.13553 -1.00489,0.20241 -0.48696,0.0669 -1.09504,0.14669 -1.70365,0.2071 -1.21724,0.12082 -2.46356,0.21959 -3.18389,0.38474 -0.54411,0.12475 -0.85676,0.0726 -1.25823,-0.0614 -0.40148,-0.13397 -0.88133,-0.38437 -1.5548,-0.52064 -0.81864,-0.16561 -1.74383,0.15639 -2.99902,0.85868 -0.87264,0.48824 -2.00355,1.25889 -3.26961,2.18819 -2.82581,-3.23187 -5.77308,-6.60313 -6.01391,-6.89159 -0.56356,-0.67504 -1.77805,-1.65517 -2.73687,-1.7286 -0.95883,-0.0734 -3.79315,1.22938 -4.35001,1.55256 -0.55685,0.32318 -1.48784,-1.25381 -2.56485,-1.08686 -0.0186,0.003 -0.0621,0.0242 -0.0837,0.0285 -1.24558,-5.54468 -5.20291,-10.56372 -10.72165,-12.82763 -8.05973,-3.30627 -16.38401,0.54765 -18.58576,8.62203 -1.61458,5.9211 0.4951,12.46461 4.92068,16.83568 -0.0405,0.006 -0.2356,0.0393 -0.26524,0.0437 -0.34924,0.0523 -1.39588,-0.0109 -2.36245,-0.082 -0.48328,-0.0355 -0.97394,-0.0704 -1.3842,-0.0885 -0.41025,-0.0182 -0.69843,-0.0262 -0.99204,0.0346 -0.15787,0.0327 -0.7094,-0.0135 -1.35709,-0.2145 -0.64768,-0.201 -1.41819,-0.52297 -2.21407,-0.87958 a 0.50024408,0.50024408 0 1 0 -0.4132,0.91117 c 0.81838,0.36669 1.62959,0.68623 2.34004,0.90669 0.71044,0.22047 1.2716,0.38054 1.81864,0.26731 0.0588,-0.0122 0.39656,-0.0503 0.78242,-0.0332 0.38585,0.0171 0.85811,0.0672 1.34236,0.1028 0.9685,0.0712 1.93407,0.17608 2.57207,0.0806 0.13357,-0.02 0.79185,-0.15448 1.07477,-0.20288 1.39905,1.20125 2.98202,2.20032 4.72941,2.91713 0.95613,0.39218 1.91825,0.69383 2.871,0.88915 -0.23134,0.49912 -0.59192,1.34565 -0.59192,1.34565 l -0.24836,2.55923 2.59019,4.86014 -23.72467,2.99635 c -0.40515,0.0509 -0.81808,-0.17337 -1.19023,-0.3414 l -8.52304,-3.84202 c -0.3491,-0.15758 -0.74929,-0.36873 -1.11989,-0.27199 l -1.63236,0.41625 -1.19099,-2.53559 c -0.12994,-0.27463 -0.49695,-0.45557 -0.79951,-0.42783 -46.43723,4.25089 -92.68112,7.81203 -139.20135,14.12762 -0.43741,0.0416 -0.92155,0.54538 -0.90181,0.98435 l 0.90326,20.04913 c 0.0481,1.07034 1.93504,0.95133 1.93504,0.95133 l 78.98393,-9.36292 c 0.71043,-0.0843 1.39063,0.0791 1.4868,0.80061 l 0.19191,1.52207 c 0.049,0.36784 0.57283,0.68577 0.94064,0.63657 l 31.2775,-4.19307 c 0.32249,-0.0453 0.67567,-0.49323 0.56763,-0.80043 l -0.3279,-0.96212 c -0.15741,-0.44758 0.0241,-1.29332 0.49401,-1.35897 l 32.56096,-4.5371 c 0.21686,-0.0313 0.49753,-0.28856 0.41597,-0.49194 l -0.4548,-1.12898 1.26873,-0.45574 3.82241,-7.27907 c 0.12209,-0.23247 0.3797,-0.41604 0.63986,-0.45152 l 23.9885,-3.24969 1.55696,2.92446 -0.8929,2.31199 5.01053,11.48237 c 0.71045,1.62466 2.29178,1.60657 4.60597,1.18497 l 4.43883,-0.81244 0.46288,6.49561 c -5.20245,1.79187 -5.08837,3.68604 1.05152,4.66084 7.7235,1.22622 22.02437,0.53965 31.96604,-1.55628 9.94168,-2.09592 11.76399,-4.7965 4.04049,-6.02272 -4.76207,-0.75604 -12.02671,-0.77798 -19.23191,-0.19232 l -0.72119,-9.58252 4.31133,-15.63985 15.16834,-1.3876 c 0.26084,-0.0452 0.58334,0.12048 0.88222,0.25962 l 9.35104,4.35356 c 0.28068,0.13019 0.59951,0.31245 0.82613,0.23204 l 1.04579,-0.35642 1.81751,2.18199 c 0.18699,0.21596 0.44753,0.40844 0.64549,0.38699 l 87.19745,-9.99107 c 0.28507,-0.0327 0.67929,-0.57265 0.37184,-0.82704 l -13.12612,-10.84091 c -0.3749,-0.31017 -0.74595,-0.51913 -1.03857,-0.64989 z m -84.54452,9.62387 8.14132,9.43487 -0.65505,0.26993 c -0.14542,0.0625 -0.35961,-0.008 -0.54568,-0.0942 l -8.95843,-4.16053 c -0.27253,-0.12619 -0.7004,-0.61584 -0.57889,-0.87659 l 2.02539,-4.33208 c 0.0886,-0.18929 0.57139,-0.24142 0.57139,-0.24142 z m -24.73158,25.79754 0.5337,6.63489 c -3.78825,0.36888 -7.49836,0.89874 -10.73673,1.58146 -1.14894,0.24222 -2.18238,0.47866 -3.11166,0.73365 l -0.47526,-6.25794 12.96758,-2.3651 c 0.3022,-0.0551 0.56636,-0.16541 0.82237,-0.32696 z m -56.73597,-11.6662 c 0.33936,0.15247 0.62027,0.72613 0.45434,1.05911 l -3.32372,6.61886 -0.96212,0.3279 -6.07198,-11.37741 1.07383,-0.34263 c 0.24258,-0.0747 0.52372,-0.0111 0.75532,0.0928 l 8.07433,3.62141 z"
           style="fill:none;stroke:#000000;stroke-width:2.29192948;stroke-linecap:round;stroke-linejoin:miter;stroke-miterlimit:4;stroke-opacity:1;stroke-dasharray:2.2919294, 2.2919294;stroke-dashoffset:0" />
        <path
           style="color:#000000;fill:none;stroke:#000000;stroke-width:2.29192948;stroke-linecap:round;stroke-linejoin:miter;stroke-miterlimit:4;stroke-opacity:1;stroke-dasharray:2.2919294, 2.2919294;stroke-dashoffset:0;marker:none;visibility:visible;display:inline;overflow:visible;enable-background:accumulate"
           d="m 526.81579,182.46423 -18.57142,1.78571 -1.60715,18.75"
           id="path4348"
           inkscape:connector-curvature="0" />
      </g>
      <g
         id="g4350"
         transform="matrix(-0.04864969,0.43359287,-0.43359287,-0.04864969,397.84111,163.2075)"
         style="stroke:#000000;stroke-width:2.29192948;stroke-linecap:round;stroke-miterlimit:4;stroke-opacity:1;stroke-dasharray:2.2919294, 4.58385881;stroke-dashoffset:0">
        <path
           style="fill:none;stroke:#000000;stroke-width:2.29192948;stroke-linecap:round;stroke-linejoin:miter;stroke-miterlimit:4;stroke-opacity:1;stroke-dasharray:2.2919294, 4.58385881;stroke-dashoffset:0"
           d="m 649.22209,187.17453 c -0.29263,-0.13072 -0.50432,-0.1783 -0.50432,-0.1783 l -86.13094,6.476 c -0.13851,0.0255 -0.30597,0.27233 -0.17881,0.43443 l 1.77616,2.26612 c 0,0 -0.51464,0.11239 -0.61275,0.32555 l -2.23169,4.82264 c -0.0843,0.18273 -0.15007,0.34965 -0.31899,0.36551 l -14.74909,1.38479 0.36851,-1.3162 c 0.2938,-1.06459 0.0247,-2.27621 -0.0188,-2.79502 -0.0228,-0.27262 -3.5057,-4.32671 -7.03006,-8.3662 1.20359,-0.88601 2.27977,-1.63029 3.07471,-2.07507 1.17098,-0.65518 1.91786,-0.82263 2.31499,-0.74228 0.54229,0.10971 0.95268,0.30195 1.44262,0.46549 0.48994,0.16354 1.06514,0.27987 1.78966,0.11376 0.54831,-0.12571 1.84869,-0.24857 3.07218,-0.37001 0.61175,-0.0607 1.21899,-0.1229 1.7317,-0.19332 0.5127,-0.0704 0.92109,-0.13315 1.24209,-0.2599 0.79863,-0.31532 4.43414,-1.51119 4.43414,-1.51119 a 0.50005,0.50005 0 0 0 -0.0346,-0.99205 0.50005,0.50005 0 0 0 -0.26524,0.0437 c 0,0 -3.55669,1.13762 -4.50402,1.51166 -0.11548,0.0456 -0.51794,0.13553 -1.00489,0.20241 -0.48696,0.0669 -1.09504,0.14669 -1.70365,0.2071 -1.21724,0.12082 -2.46356,0.21959 -3.18389,0.38474 -0.54411,0.12475 -0.85676,0.0726 -1.25823,-0.0614 -0.40148,-0.13397 -0.88133,-0.38437 -1.5548,-0.52064 -0.81864,-0.16561 -1.74383,0.15639 -2.99902,0.85868 -0.87264,0.48824 -2.00355,1.25889 -3.26961,2.18819 -2.82581,-3.23187 -5.77308,-6.60313 -6.01391,-6.89159 -0.56356,-0.67504 -1.77805,-1.65517 -2.73687,-1.7286 -0.95883,-0.0734 -3.79315,1.22938 -4.35001,1.55256 -0.55685,0.32318 -1.48784,-1.25381 -2.56485,-1.08686 -0.0186,0.003 -0.0621,0.0242 -0.0837,0.0285 -1.24558,-5.54468 -5.20291,-10.56372 -10.72165,-12.82763 -8.05973,-3.30627 -16.38401,0.54765 -18.58576,8.62203 -1.61458,5.9211 0.4951,12.46461 4.92068,16.83568 -0.0405,0.006 -0.2356,0.0393 -0.26524,0.0437 -0.34924,0.0523 -1.39588,-0.0109 -2.36245,-0.082 -0.48328,-0.0355 -0.97394,-0.0704 -1.3842,-0.0885 -0.41025,-0.0182 -0.69843,-0.0262 -0.99204,0.0346 -0.15787,0.0327 -0.7094,-0.0135 -1.35709,-0.2145 -0.64768,-0.201 -1.41819,-0.52297 -2.21407,-0.87958 a 0.50024408,0.50024408 0 1 0 -0.4132,0.91117 c 0.81838,0.36669 1.62959,0.68623 2.34004,0.90669 0.71044,0.22047 1.2716,0.38054 1.81864,0.26731 0.0588,-0.0122 0.39656,-0.0503 0.78242,-0.0332 0.38585,0.0171 0.85811,0.0672 1.34236,0.1028 0.9685,0.0712 1.93407,0.17608 2.57207,0.0806 0.13357,-0.02 0.79185,-0.15448 1.07477,-0.20288 1.39905,1.20125 2.98202,2.20032 4.72941,2.91713 0.95613,0.39218 1.91825,0.69383 2.871,0.88915 -0.23134,0.49912 -0.59192,1.34565 -0.59192,1.34565 l -0.24836,2.55923 2.59019,4.86014 -23.72467,2.99635 c -0.40515,0.0509 -0.81808,-0.17337 -1.19023,-0.3414 l -8.52304,-3.84202 c -0.3491,-0.15758 -0.74929,-0.36873 -1.11989,-0.27199 l -1.63236,0.41625 -1.19099,-2.53559 c -0.12994,-0.27463 -0.49695,-0.45557 -0.79951,-0.42783 -46.43723,4.25089 -92.68112,7.81203 -139.20135,14.12762 -0.43741,0.0416 -0.92155,0.54538 -0.90181,0.98435 l 0.90326,20.04913 c 0.0481,1.07034 1.93504,0.95133 1.93504,0.95133 l 78.98393,-9.36292 c 0.71043,-0.0843 1.39063,0.0791 1.4868,0.80061 l 0.19191,1.52207 c 0.049,0.36784 0.57283,0.68577 0.94064,0.63657 l 31.2775,-4.19307 c 0.32249,-0.0453 0.67567,-0.49323 0.56763,-0.80043 l -0.3279,-0.96212 c -0.15741,-0.44758 0.0241,-1.29332 0.49401,-1.35897 l 32.56096,-4.5371 c 0.21686,-0.0313 0.49753,-0.28856 0.41597,-0.49194 l -0.4548,-1.12898 1.26873,-0.45574 3.82241,-7.27907 c 0.12209,-0.23247 0.3797,-0.41604 0.63986,-0.45152 l 23.9885,-3.24969 1.55696,2.92446 -0.8929,2.31199 5.01053,11.48237 c 0.71045,1.62466 2.29178,1.60657 4.60597,1.18497 l 4.43883,-0.81244 0.46288,6.49561 c -5.20245,1.79187 -5.08837,3.68604 1.05152,4.66084 7.7235,1.22622 22.02437,0.53965 31.96604,-1.55628 9.94168,-2.09592 11.76399,-4.7965 4.04049,-6.02272 -4.76207,-0.75604 -12.02671,-0.77798 -19.23191,-0.19232 l -0.72119,-9.58252 4.31133,-15.63985 15.16834,-1.3876 c 0.26084,-0.0452 0.58334,0.12048 0.88222,0.25962 l 9.35104,4.35356 c 0.28068,0.13019 0.59951,0.31245 0.82613,0.23204 l 1.04579,-0.35642 1.81751,2.18199 c 0.18699,0.21596 0.44753,0.40844 0.64549,0.38699 l 87.19745,-9.99107 c 0.28507,-0.0327 0.67929,-0.57265 0.37184,-0.82704 l -13.12612,-10.84091 c -0.3749,-0.31017 -0.74595,-0.51913 -1.03857,-0.64989 z m -84.54452,9.62387 8.14132,9.43487 -0.65505,0.26993 c -0.14542,0.0625 -0.35961,-0.008 -0.54568,-0.0942 l -8.95843,-4.16053 c -0.27253,-0.12619 -0.7004,-0.61584 -0.57889,-0.87659 l 2.02539,-4.33208 c 0.0886,-0.18929 0.57139,-0.24142 0.57139,-0.24142 z m -24.73158,25.79754 0.5337,6.63489 c -3.78825,0.36888 -7.49836,0.89874 -10.73673,1.58146 -1.14894,0.24222 -2.18238,0.47866 -3.11166,0.73365 l -0.47526,-6.25794 12.96758,-2.3651 c 0.3022,-0.0551 0.56636,-0.16541 0.82237,-0.32696 z m -56.73597,-11.6662 c 0.33936,0.15247 0.62027,0.72613 0.45434,1.05911 l -3.32372,6.61886 -0.96212,0.3279 -6.07198,-11.37741 1.07383,-0.34263 c 0.24258,-0.0747 0.52372,-0.0111 0.75532,0.0928 l 8.07433,3.62141 z"
           id="path4352"
           inkscape:connector-curvature="0" />
        <path
           inkscape:connector-curvature="0"
           id="path4354"
           d="m 526.81579,182.46423 -18.57142,1.78571 -1.60715,18.75"
           style="color:#000000;fill:none;stroke:#000000;stroke-width:2.29192948;stroke-linecap:round;stroke-linejoin:miter;stroke-miterlimit:4;stroke-opacity:1;stroke-dasharray:2.2919294, 4.58385881;stroke-dashoffset:0;marker:none;visibility:visible;display:inline;overflow:visible;enable-background:accumulate" />
      </g>
      <g
         style="stroke:#000000;stroke-width:2.29192948;stroke-linecap:round;stroke-miterlimit:4;stroke-opacity:1;stroke-dasharray:2.2919294, 9.16771762;stroke-dashoffset:0"
         transform="matrix(-0.04864969,0.43359287,-0.43359287,-0.04864969,374.18918,243.10236)"
         id="g4356">
        <path
           inkscape:connector-curvature="0"
           id="path4358"
           d="m 649.22209,187.17453 c -0.29263,-0.13072 -0.50432,-0.1783 -0.50432,-0.1783 l -86.13094,6.476 c -0.13851,0.0255 -0.30597,0.27233 -0.17881,0.43443 l 1.77616,2.26612 c 0,0 -0.51464,0.11239 -0.61275,0.32555 l -2.23169,4.82264 c -0.0843,0.18273 -0.15007,0.34965 -0.31899,0.36551 l -14.74909,1.38479 0.36851,-1.3162 c 0.2938,-1.06459 0.0247,-2.27621 -0.0188,-2.79502 -0.0228,-0.27262 -3.5057,-4.32671 -7.03006,-8.3662 1.20359,-0.88601 2.27977,-1.63029 3.07471,-2.07507 1.17098,-0.65518 1.91786,-0.82263 2.31499,-0.74228 0.54229,0.10971 0.95268,0.30195 1.44262,0.46549 0.48994,0.16354 1.06514,0.27987 1.78966,0.11376 0.54831,-0.12571 1.84869,-0.24857 3.07218,-0.37001 0.61175,-0.0607 1.21899,-0.1229 1.7317,-0.19332 0.5127,-0.0704 0.92109,-0.13315 1.24209,-0.2599 0.79863,-0.31532 4.43414,-1.51119 4.43414,-1.51119 a 0.50005,0.50005 0 0 0 -0.0346,-0.99205 0.50005,0.50005 0 0 0 -0.26524,0.0437 c 0,0 -3.55669,1.13762 -4.50402,1.51166 -0.11548,0.0456 -0.51794,0.13553 -1.00489,0.20241 -0.48696,0.0669 -1.09504,0.14669 -1.70365,0.2071 -1.21724,0.12082 -2.46356,0.21959 -3.18389,0.38474 -0.54411,0.12475 -0.85676,0.0726 -1.25823,-0.0614 -0.40148,-0.13397 -0.88133,-0.38437 -1.5548,-0.52064 -0.81864,-0.16561 -1.74383,0.15639 -2.99902,0.85868 -0.87264,0.48824 -2.00355,1.25889 -3.26961,2.18819 -2.82581,-3.23187 -5.77308,-6.60313 -6.01391,-6.89159 -0.56356,-0.67504 -1.77805,-1.65517 -2.73687,-1.7286 -0.95883,-0.0734 -3.79315,1.22938 -4.35001,1.55256 -0.55685,0.32318 -1.48784,-1.25381 -2.56485,-1.08686 -0.0186,0.003 -0.0621,0.0242 -0.0837,0.0285 -1.24558,-5.54468 -5.20291,-10.56372 -10.72165,-12.82763 -8.05973,-3.30627 -16.38401,0.54765 -18.58576,8.62203 -1.61458,5.9211 0.4951,12.46461 4.92068,16.83568 -0.0405,0.006 -0.2356,0.0393 -0.26524,0.0437 -0.34924,0.0523 -1.39588,-0.0109 -2.36245,-0.082 -0.48328,-0.0355 -0.97394,-0.0704 -1.3842,-0.0885 -0.41025,-0.0182 -0.69843,-0.0262 -0.99204,0.0346 -0.15787,0.0327 -0.7094,-0.0135 -1.35709,-0.2145 -0.64768,-0.201 -1.41819,-0.52297 -2.21407,-0.87958 a 0.50024408,0.50024408 0 1 0 -0.4132,0.91117 c 0.81838,0.36669 1.62959,0.68623 2.34004,0.90669 0.71044,0.22047 1.2716,0.38054 1.81864,0.26731 0.0588,-0.0122 0.39656,-0.0503 0.78242,-0.0332 0.38585,0.0171 0.85811,0.0672 1.34236,0.1028 0.9685,0.0712 1.93407,0.17608 2.57207,0.0806 0.13357,-0.02 0.79185,-0.15448 1.07477,-0.20288 1.39905,1.20125 2.98202,2.20032 4.72941,2.91713 0.95613,0.39218 1.91825,0.69383 2.871,0.88915 -0.23134,0.49912 -0.59192,1.34565 -0.59192,1.34565 l -0.24836,2.55923 2.59019,4.86014 -23.72467,2.99635 c -0.40515,0.0509 -0.81808,-0.17337 -1.19023,-0.3414 l -8.52304,-3.84202 c -0.3491,-0.15758 -0.74929,-0.36873 -1.11989,-0.27199 l -1.63236,0.41625 -1.19099,-2.53559 c -0.12994,-0.27463 -0.49695,-0.45557 -0.79951,-0.42783 -46.43723,4.25089 -92.68112,7.81203 -139.20135,14.12762 -0.43741,0.0416 -0.92155,0.54538 -0.90181,0.98435 l 0.90326,20.04913 c 0.0481,1.07034 1.93504,0.95133 1.93504,0.95133 l 78.98393,-9.36292 c 0.71043,-0.0843 1.39063,0.0791 1.4868,0.80061 l 0.19191,1.52207 c 0.049,0.36784 0.57283,0.68577 0.94064,0.63657 l 31.2775,-4.19307 c 0.32249,-0.0453 0.67567,-0.49323 0.56763,-0.80043 l -0.3279,-0.96212 c -0.15741,-0.44758 0.0241,-1.29332 0.49401,-1.35897 l 32.56096,-4.5371 c 0.21686,-0.0313 0.49753,-0.28856 0.41597,-0.49194 l -0.4548,-1.12898 1.26873,-0.45574 3.82241,-7.27907 c 0.12209,-0.23247 0.3797,-0.41604 0.63986,-0.45152 l 23.9885,-3.24969 1.55696,2.92446 -0.8929,2.31199 5.01053,11.48237 c 0.71045,1.62466 2.29178,1.60657 4.60597,1.18497 l 4.43883,-0.81244 0.46288,6.49561 c -5.20245,1.79187 -5.08837,3.68604 1.05152,4.66084 7.7235,1.22622 22.02437,0.53965 31.96604,-1.55628 9.94168,-2.09592 11.76399,-4.7965 4.04049,-6.02272 -4.76207,-0.75604 -12.02671,-0.77798 -19.23191,-0.19232 l -0.72119,-9.58252 4.31133,-15.63985 15.16834,-1.3876 c 0.26084,-0.0452 0.58334,0.12048 0.88222,0.25962 l 9.35104,4.35356 c 0.28068,0.13019 0.59951,0.31245 0.82613,0.23204 l 1.04579,-0.35642 1.81751,2.18199 c 0.18699,0.21596 0.44753,0.40844 0.64549,0.38699 l 87.19745,-9.99107 c 0.28507,-0.0327 0.67929,-0.57265 0.37184,-0.82704 l -13.12612,-10.84091 c -0.3749,-0.31017 -0.74595,-0.51913 -1.03857,-0.64989 z m -84.54452,9.62387 8.14132,9.43487 -0.65505,0.26993 c -0.14542,0.0625 -0.35961,-0.008 -0.54568,-0.0942 l -8.95843,-4.16053 c -0.27253,-0.12619 -0.7004,-0.61584 -0.57889,-0.87659 l 2.02539,-4.33208 c 0.0886,-0.18929 0.57139,-0.24142 0.57139,-0.24142 z m -24.73158,25.79754 0.5337,6.63489 c -3.78825,0.36888 -7.49836,0.89874 -10.73673,1.58146 -1.14894,0.24222 -2.18238,0.47866 -3.11166,0.73365 l -0.47526,-6.25794 12.96758,-2.3651 c 0.3022,-0.0551 0.56636,-0.16541 0.82237,-0.32696 z m -56.73597,-11.6662 c 0.33936,0.15247 0.62027,0.72613 0.45434,1.05911 l -3.32372,6.61886 -0.96212,0.3279 -6.07198,-11.37741 1.07383,-0.34263 c 0.24258,-0.0747 0.52372,-0.0111 0.75532,0.0928 l 8.07433,3.62141 z"
           style="fill:none;stroke:#000000;stroke-width:2.29192948;stroke-linecap:round;stroke-linejoin:miter;stroke-miterlimit:4;stroke-opacity:1;stroke-dasharray:2.2919294, 9.16771762;stroke-dashoffset:0" />
        <path
           style="color:#000000;fill:none;stroke:#000000;stroke-width:2.29192948;stroke-linecap:round;stroke-linejoin:miter;stroke-miterlimit:4;stroke-opacity:1;stroke-dasharray:2.2919294, 9.16771762;stroke-dashoffset:0;marker:none;visibility:visible;display:inline;overflow:visible;enable-background:accumulate"
           d="m 526.81579,182.46423 -18.57142,1.78571 -1.60715,18.75"
           id="path4360"
           inkscape:connector-curvature="0" />
      </g>
      <g
         id="g4362"
         transform="matrix(-0.04864969,0.43359287,-0.43359287,-0.04864969,346.91506,320.88411)"
         style="stroke:#000000;stroke-width:2.29192948;stroke-linecap:round;stroke-miterlimit:4;stroke-opacity:1;stroke-dasharray:2.2919294, 9.16771762;stroke-dashoffset:0">
        <path
           style="fill:none;stroke:#000000;stroke-width:2.29192948;stroke-linecap:round;stroke-linejoin:miter;stroke-miterlimit:4;stroke-opacity:1;stroke-dasharray:2.2919294, 9.16771762;stroke-dashoffset:0"
           d="m 649.22209,187.17453 c -0.29263,-0.13072 -0.50432,-0.1783 -0.50432,-0.1783 l -86.13094,6.476 c -0.13851,0.0255 -0.30597,0.27233 -0.17881,0.43443 l 1.77616,2.26612 c 0,0 -0.51464,0.11239 -0.61275,0.32555 l -2.23169,4.82264 c -0.0843,0.18273 -0.15007,0.34965 -0.31899,0.36551 l -14.74909,1.38479 0.36851,-1.3162 c 0.2938,-1.06459 0.0247,-2.27621 -0.0188,-2.79502 -0.0228,-0.27262 -3.5057,-4.32671 -7.03006,-8.3662 1.20359,-0.88601 2.27977,-1.63029 3.07471,-2.07507 1.17098,-0.65518 1.91786,-0.82263 2.31499,-0.74228 0.54229,0.10971 0.95268,0.30195 1.44262,0.46549 0.48994,0.16354 1.06514,0.27987 1.78966,0.11376 0.54831,-0.12571 1.84869,-0.24857 3.07218,-0.37001 0.61175,-0.0607 1.21899,-0.1229 1.7317,-0.19332 0.5127,-0.0704 0.92109,-0.13315 1.24209,-0.2599 0.79863,-0.31532 4.43414,-1.51119 4.43414,-1.51119 a 0.50005,0.50005 0 0 0 -0.0346,-0.99205 0.50005,0.50005 0 0 0 -0.26524,0.0437 c 0,0 -3.55669,1.13762 -4.50402,1.51166 -0.11548,0.0456 -0.51794,0.13553 -1.00489,0.20241 -0.48696,0.0669 -1.09504,0.14669 -1.70365,0.2071 -1.21724,0.12082 -2.46356,0.21959 -3.18389,0.38474 -0.54411,0.12475 -0.85676,0.0726 -1.25823,-0.0614 -0.40148,-0.13397 -0.88133,-0.38437 -1.5548,-0.52064 -0.81864,-0.16561 -1.74383,0.15639 -2.99902,0.85868 -0.87264,0.48824 -2.00355,1.25889 -3.26961,2.18819 -2.82581,-3.23187 -5.77308,-6.60313 -6.01391,-6.89159 -0.56356,-0.67504 -1.77805,-1.65517 -2.73687,-1.7286 -0.95883,-0.0734 -3.79315,1.22938 -4.35001,1.55256 -0.55685,0.32318 -1.48784,-1.25381 -2.56485,-1.08686 -0.0186,0.003 -0.0621,0.0242 -0.0837,0.0285 -1.24558,-5.54468 -5.20291,-10.56372 -10.72165,-12.82763 -8.05973,-3.30627 -16.38401,0.54765 -18.58576,8.62203 -1.61458,5.9211 0.4951,12.46461 4.92068,16.83568 -0.0405,0.006 -0.2356,0.0393 -0.26524,0.0437 -0.34924,0.0523 -1.39588,-0.0109 -2.36245,-0.082 -0.48328,-0.0355 -0.97394,-0.0704 -1.3842,-0.0885 -0.41025,-0.0182 -0.69843,-0.0262 -0.99204,0.0346 -0.15787,0.0327 -0.7094,-0.0135 -1.35709,-0.2145 -0.64768,-0.201 -1.41819,-0.52297 -2.21407,-0.87958 a 0.50024408,0.50024408 0 1 0 -0.4132,0.91117 c 0.81838,0.36669 1.62959,0.68623 2.34004,0.90669 0.71044,0.22047 1.2716,0.38054 1.81864,0.26731 0.0588,-0.0122 0.39656,-0.0503 0.78242,-0.0332 0.38585,0.0171 0.85811,0.0672 1.34236,0.1028 0.9685,0.0712 1.93407,0.17608 2.57207,0.0806 0.13357,-0.02 0.79185,-0.15448 1.07477,-0.20288 1.39905,1.20125 2.98202,2.20032 4.72941,2.91713 0.95613,0.39218 1.91825,0.69383 2.871,0.88915 -0.23134,0.49912 -0.59192,1.34565 -0.59192,1.34565 l -0.24836,2.55923 2.59019,4.86014 -23.72467,2.99635 c -0.40515,0.0509 -0.81808,-0.17337 -1.19023,-0.3414 l -8.52304,-3.84202 c -0.3491,-0.15758 -0.74929,-0.36873 -1.11989,-0.27199 l -1.63236,0.41625 -1.19099,-2.53559 c -0.12994,-0.27463 -0.49695,-0.45557 -0.79951,-0.42783 -46.43723,4.25089 -92.68112,7.81203 -139.20135,14.12762 -0.43741,0.0416 -0.92155,0.54538 -0.90181,0.98435 l 0.90326,20.04913 c 0.0481,1.07034 1.93504,0.95133 1.93504,0.95133 l 78.98393,-9.36292 c 0.71043,-0.0843 1.39063,0.0791 1.4868,0.80061 l 0.19191,1.52207 c 0.049,0.36784 0.57283,0.68577 0.94064,0.63657 l 31.2775,-4.19307 c 0.32249,-0.0453 0.67567,-0.49323 0.56763,-0.80043 l -0.3279,-0.96212 c -0.15741,-0.44758 0.0241,-1.29332 0.49401,-1.35897 l 32.56096,-4.5371 c 0.21686,-0.0313 0.49753,-0.28856 0.41597,-0.49194 l -0.4548,-1.12898 1.26873,-0.45574 3.82241,-7.27907 c 0.12209,-0.23247 0.3797,-0.41604 0.63986,-0.45152 l 23.9885,-3.24969 1.55696,2.92446 -0.8929,2.31199 5.01053,11.48237 c 0.71045,1.62466 2.29178,1.60657 4.60597,1.18497 l 4.43883,-0.81244 0.46288,6.49561 c -5.20245,1.79187 -5.08837,3.68604 1.05152,4.66084 7.7235,1.22622 22.02437,0.53965 31.96604,-1.55628 9.94168,-2.09592 11.76399,-4.7965 4.04049,-6.02272 -4.76207,-0.75604 -12.02671,-0.77798 -19.23191,-0.19232 l -0.72119,-9.58252 4.31133,-15.63985 15.16834,-1.3876 c 0.26084,-0.0452 0.58334,0.12048 0.88222,0.25962 l 9.35104,4.35356 c 0.28068,0.13019 0.59951,0.31245 0.82613,0.23204 l 1.04579,-0.35642 1.81751,2.18199 c 0.18699,0.21596 0.44753,0.40844 0.64549,0.38699 l 87.19745,-9.99107 c 0.28507,-0.0327 0.67929,-0.57265 0.37184,-0.82704 l -13.12612,-10.84091 c -0.3749,-0.31017 -0.74595,-0.51913 -1.03857,-0.64989 z m -84.54452,9.62387 8.14132,9.43487 -0.65505,0.26993 c -0.14542,0.0625 -0.35961,-0.008 -0.54568,-0.0942 l -8.95843,-4.16053 c -0.27253,-0.12619 -0.7004,-0.61584 -0.57889,-0.87659 l 2.02539,-4.33208 c 0.0886,-0.18929 0.57139,-0.24142 0.57139,-0.24142 z m -24.73158,25.79754 0.5337,6.63489 c -3.78825,0.36888 -7.49836,0.89874 -10.73673,1.58146 -1.14894,0.24222 -2.18238,0.47866 -3.11166,0.73365 l -0.47526,-6.25794 12.96758,-2.3651 c 0.3022,-0.0551 0.56636,-0.16541 0.82237,-0.32696 z m -56.73597,-11.6662 c 0.33936,0.15247 0.62027,0.72613 0.45434,1.05911 l -3.32372,6.61886 -0.96212,0.3279 -6.07198,-11.37741 1.07383,-0.34263 c 0.24258,-0.0747 0.52372,-0.0111 0.75532,0.0928 l 8.07433,3.62141 z"
           id="path4364"
           inkscape:connector-curvature="0" />
        <path
           inkscape:connector-curvature="0"
           id="path4366"
           d="m 526.81579,182.46423 -18.57142,1.78571 -1.60715,18.75"
           style="color:#000000;fill:none;stroke:#000000;stroke-width:2.29192948;stroke-linecap:round;stroke-linejoin:miter;stroke-miterlimit:4;stroke-opacity:1;stroke-dasharray:2.2919294, 9.16771762;stroke-dashoffset:0;marker:none;visibility:visible;display:inline;overflow:visible;enable-background:accumulate" />
      </g>
    </g>
    <text
       xml:space="preserve"
       style="font-size:40px;font-style:normal;font-variant:normal;font-weight:normal;font-stretch:normal;text-align:start;line-height:125%;letter-spacing:0px;word-spacing:0px;text-anchor:start;fill:#000000;fill-opacity:1;stroke:none;font-family:Ubuntu;-inkscape-font-specification:Sans"
       x="966.72699"
       y="604.18878"
       id="text4372"
       sodipodi:linespacing="125%"
       transform="matrix(0.99959957,0.02829672,-0.02829672,0.99959957,0,0)"><tspan
         sodipodi:role="line"
         x="966.72699"
         y="604.18878"
         id="tspan4401"
         dx="-1.7423256e-08 0">n̂</tspan></text>
    <path
       style="fill:none;stroke:#000000;stroke-width:1px;stroke-linecap:round;stroke-linejoin:miter;stroke-opacity:1;marker-start:url(#Arrow2Lstart)"
       d="M 415.06298,706.63651 315.54607,841.46587"
       id="path4376"
       inkscape:connector-curvature="0"
       sodipodi:nodetypes="cc" />
    <path
       style="fill:none;stroke:#000000;stroke-width:1px;stroke-linecap:butt;stroke-linejoin:miter;stroke-opacity:1"
       d="m 434.49383,628.63958 -143.8301,71.38285"
       id="path4378"
       inkscape:connector-curvature="0"
       sodipodi:nodetypes="cc" />
    <path
       style="color:#000000;fill:none;stroke:#000000;stroke-width:1;stroke-linecap:butt;stroke-linejoin:miter;stroke-miterlimit:4;stroke-opacity:1;stroke-dasharray:1, 2;stroke-dashoffset:0;marker:none;marker-end:url(#Arrow2Lend-1);visibility:visible;display:inline;overflow:visible;enable-background:accumulate"
       d="m 435.92095,667.26321 c -2.52538,-14.14214 -3.16889,-165.43477 -17.14286,-166.02502 -13.97397,-0.59025 -27.41335,160.46483 -29.19906,180.82197"
       id="path4424"
       inkscape:connector-curvature="0"
       sodipodi:nodetypes="czc" />
    <g
       id="g4432"
       transform="translate(-19.844105,58.588847)">
      <path
         sodipodi:type="arc"
         style="opacity:0.6;color:#000000;fill:none;stroke:#000000;stroke-width:1;stroke-linecap:round;stroke-linejoin:miter;stroke-miterlimit:4;stroke-opacity:1;stroke-dasharray:none;stroke-dashoffset:0;marker:none;visibility:visible;display:inline;overflow:visible;enable-background:accumulate"
         id="path4428"
         sodipodi:cx="288.57144"
         sodipodi:cy="469.50504"
         sodipodi:rx="437.14285"
         sodipodi:ry="437.14285"
         d="M 281.1694,32.424856 C 522.56212,28.336822 721.56359,220.71028 725.65162,462.103 729.73966,703.49571 537.3662,902.49718 295.97348,906.58522 c -0.27875,0.005 -0.5575,0.009 -0.83625,0.0134"
         transform="matrix(0.65725477,0,0,0.65725477,263.38803,261.31651)"
         sodipodi:start="4.6954554"
         sodipodi:end="7.8389613"
         sodipodi:open="true" />
    </g>
    <text
       xml:space="preserve"
       style="font-size:8.72942734px;font-style:normal;font-variant:normal;font-weight:normal;font-stretch:normal;text-indent:0;text-align:start;text-decoration:none;line-height:125%;letter-spacing:0px;word-spacing:0px;text-transform:none;direction:ltr;block-progression:tb;writing-mode:lr-tb;text-anchor:start;baseline-shift:baseline;color:#000000;fill:#000000;fill-opacity:1;fill-rule:nonzero;stroke:none;marker:none;visibility:visible;display:inline;overflow:visible;enable-background:accumulate;font-family:Ubuntu;-inkscape-font-specification:Sans"
       x="-426.95111"
       y="750.24548"
       id="text4462"
       sodipodi:linespacing="125%"
       transform="matrix(0.59540634,-0.80342473,0.80342473,0.59540634,0,0)"
       inkscape:transform-center-x="-3.2142857"
       inkscape:transform-center-y="-10.357143"><tspan
         sodipodi:role="line"
         id="tspan4464"
         x="-426.95111"
         y="750.24548">| 35800km |</tspan></text>
    <text
       transform="matrix(0.89052919,-0.4549261,0.4549261,0.89052919,0,0)"
       sodipodi:linespacing="125%"
       id="text4485"
       y="752.09253"
       x="-30.382959"
       style="font-size:8.72942734px;font-style:normal;font-variant:normal;font-weight:normal;font-stretch:normal;text-indent:0;text-align:start;text-decoration:none;line-height:125%;letter-spacing:0px;word-spacing:0px;text-transform:none;direction:ltr;block-progression:tb;writing-mode:lr-tb;text-anchor:start;baseline-shift:baseline;color:#000000;fill:#000000;fill-opacity:1;fill-rule:nonzero;stroke:none;marker:none;visibility:visible;display:inline;overflow:visible;enable-background:accumulate;font-family:Ubuntu;-inkscape-font-specification:Sans"
       xml:space="preserve"><tspan
         y="752.09253"
         x="-30.382959"
         id="tspan4487"
         sodipodi:role="line">| 35800km |</tspan></text>
    <path
       transform="matrix(0.02133743,0,0,0.02133743,485.103,590.01926)"
       d="m 725.71429,469.50504 a 437.14285,437.14285 0 1 1 -874.2857,0 437.14285,437.14285 0 1 1 874.2857,0 z"
       sodipodi:ry="437.14285"
       sodipodi:rx="437.14285"
       sodipodi:cy="469.50504"
       sodipodi:cx="288.57144"
       id="path4526"
       style="opacity:0.6;color:#000000;fill:#000000;stroke:#000000;stroke-width:1;stroke-linecap:round;stroke-linejoin:miter;stroke-miterlimit:4;stroke-opacity:1;stroke-dasharray:none;stroke-dashoffset:0;marker:none;visibility:visible;display:inline;overflow:visible;enable-background:accumulate"
       sodipodi:type="arc" />
    <path
       style="color:#000000;fill:none;stroke:#000000;stroke-width:1px;stroke-linecap:round;stroke-linejoin:miter;stroke-miterlimit:4;stroke-opacity:1;stroke-dasharray:none;stroke-dashoffset:0;marker:none;marker-end:url(#Arrow2Lend);visibility:visible;display:inline;overflow:visible;enable-background:accumulate"
       d="m 845.57249,612.05818 100.34846,3.46572"
       id="path4528"
       inkscape:connector-curvature="0"
       sodipodi:nodetypes="cc" />
    <path
       sodipodi:type="arc"
       style="opacity:0.6;color:#000000;fill:none;stroke:#000000;stroke-width:1;stroke-linecap:round;stroke-linejoin:miter;stroke-miterlimit:4;stroke-opacity:1;stroke-dasharray:none;stroke-dashoffset:0;marker:none;visibility:visible;display:inline;overflow:visible;enable-background:accumulate"
       id="path4530"
       sodipodi:cx="288.57144"
       sodipodi:cy="469.50504"
       sodipodi:rx="437.14285"
       sodipodi:ry="437.14285"
       d="m 290.1536,32.365046 a 437.14285,437.14285 0 0 1 4.51471,874.240324"
       transform="matrix(0.812784,0,0,1,256.71412,130.53226)"
       sodipodi:start="4.7160083"
       sodipodi:end="7.8400341"
       sodipodi:open="true" />
    <text
       sodipodi:linespacing="125%"
       id="text4532"
       y="610.34167"
       x="815.6004"
       style="font-size:8.72942734px;font-style:normal;font-variant:normal;font-weight:normal;font-stretch:normal;text-align:start;line-height:125%;letter-spacing:0px;word-spacing:0px;text-anchor:start;fill:#000000;fill-opacity:1;stroke:none;font-family:Ubuntu;-inkscape-font-specification:Sans"
       xml:space="preserve"><tspan
         y="610.34167"
         x="815.6004"
         id="tspan4534"
         sodipodi:role="line">lat,lon</tspan></text>
    <path
       sodipodi:type="arc"
       style="opacity:0.6;color:#000000;fill:#000000;stroke:#000000;stroke-width:1;stroke-linecap:round;stroke-linejoin:miter;stroke-miterlimit:4;stroke-opacity:1;stroke-dasharray:none;stroke-dashoffset:0;marker:none;visibility:visible;display:inline;overflow:visible;enable-background:accumulate"
       id="path4536"
       sodipodi:cx="288.57144"
       sodipodi:cy="469.50504"
       sodipodi:rx="437.14285"
       sodipodi:ry="437.14285"
       d="m 725.71429,469.50504 a 437.14285,437.14285 0 1 1 -874.2857,0 437.14285,437.14285 0 1 1 874.2857,0 z"
       transform="matrix(0.02133743,0,0,0.02133743,867.78621,602.73283)" />
    <text
       xml:space="preserve"
       style="font-size:8.72942734px;font-style:normal;font-variant:normal;font-weight:normal;font-stretch:normal;text-indent:0;text-align:start;text-decoration:none;line-height:125%;letter-spacing:0px;word-spacing:0px;text-transform:none;direction:ltr;block-progression:tb;writing-mode:lr-tb;text-anchor:start;baseline-shift:baseline;color:#000000;fill:#000000;fill-opacity:1;fill-rule:nonzero;stroke:none;marker:none;visibility:visible;display:inline;overflow:visible;enable-background:accumulate;font-family:Ubuntu;-inkscape-font-specification:Sans"
       x="919.3761"
       y="575.21851"
       id="text4462-6"
       sodipodi:linespacing="125%"
       transform="matrix(0.99921152,0.03970315,-0.03970315,0.99921152,0,0)"><tspan
         sodipodi:role="line"
         id="tspan4464-4"
         x="919.3761"
         y="575.21851">| &lt;20km |</tspan></text>
    <text
       transform="matrix(0.98530958,-0.17077774,0.17077774,0.98530958,0,0)"
       sodipodi:linespacing="125%"
       id="text4578"
       y="740.22479"
       x="341.82669"
       style="font-size:8.72942734px;font-style:normal;font-variant:normal;font-weight:normal;font-stretch:normal;text-indent:0;text-align:start;text-decoration:none;line-height:125%;letter-spacing:0px;word-spacing:0px;text-transform:none;direction:ltr;block-progression:tb;writing-mode:lr-tb;text-anchor:start;baseline-shift:baseline;color:#000000;fill:#000000;fill-opacity:1;fill-rule:nonzero;stroke:none;marker:none;visibility:visible;display:inline;overflow:visible;enable-background:accumulate;font-family:Ubuntu;-inkscape-font-specification:Sans"
       xml:space="preserve"><tspan
         y="740.22479"
         x="341.82669"
         id="tspan4580"
         sodipodi:role="line">| s‒p |</tspan></text>
    <text
       xml:space="preserve"
       style="font-size:40px;font-style:normal;font-variant:normal;font-weight:normal;font-stretch:normal;text-align:start;line-height:125%;letter-spacing:0px;word-spacing:0px;text-anchor:start;fill:#000000;fill-opacity:1;stroke:none;font-family:Ubuntu;-inkscape-font-specification:Sans"
       x="314.16315"
       y="864.34222"
       id="text4582"
       sodipodi:linespacing="125%"><tspan
         sodipodi:role="line"
         id="tspan4584"
         x="314.16315"
         y="864.34222">origin</tspan></text>
    <text
       sodipodi:linespacing="80.000001%"
       id="text4588"
       y="714.82684"
       x="417.60022"
       style="font-size:8.72942734px;font-style:normal;font-variant:normal;font-weight:normal;font-stretch:normal;text-align:start;line-height:80.00000119%;letter-spacing:0px;word-spacing:0px;text-anchor:start;fill:#000000;fill-opacity:1;stroke:none;font-family:Ubuntu;-inkscape-font-specification:Sans"
       xml:space="preserve"><tspan
         y="714.82684"
         x="417.60022"
         sodipodi:role="line"
         id="tspan4594">xyz = 0,35800,0</tspan></text>
    <text
       xml:space="preserve"
       style="font-size:8.72942734px;font-style:normal;font-variant:normal;font-weight:normal;font-stretch:normal;text-align:start;line-height:80.00000119%;letter-spacing:0px;word-spacing:0px;text-anchor:start;fill:#000000;fill-opacity:1;stroke:none;font-family:Ubuntu;-inkscape-font-specification:Sans"
       x="317.89609"
       y="876.01642"
       id="text4600"
       sodipodi:linespacing="80.000001%"><tspan
         id="tspan4602"
         sodipodi:role="line"
         x="317.89609"
         y="876.01642">xyz = 0,0,0</tspan></text>
    <text
       sodipodi:linespacing="125%"
       id="text4604"
       y="620.03076"
       x="891.06635"
       style="font-size:40px;font-style:normal;font-variant:normal;font-weight:normal;font-stretch:normal;text-align:start;line-height:125%;letter-spacing:0px;word-spacing:0px;text-anchor:start;fill:#000000;fill-opacity:1;stroke:none;font-family:Ubuntu;-inkscape-font-specification:Sans"
       xml:space="preserve"
       transform="matrix(0.99959957,0.02829672,-0.02829672,0.99959957,0,0)"><tspan
         y="620.03076"
         x="891.06635"
         id="tspan4606"
         sodipodi:role="line">p</tspan></text>
    <text
       xml:space="preserve"
       style="font-size:40px;font-style:normal;font-variant:normal;font-weight:normal;font-stretch:normal;text-align:start;line-height:125%;letter-spacing:0px;word-spacing:0px;text-anchor:start;fill:#000000;fill-opacity:1;stroke:none;font-family:Ubuntu;-inkscape-font-specification:Sans"
       x="840.33307"
       y="612.59241"
       id="text4608"
       sodipodi:linespacing="125%"
       transform="matrix(0.99959957,0.02829672,-0.02829672,0.99959957,0,0)"><tspan
         sodipodi:role="line"
         id="tspan4610"
         x="840.33307"
         y="612.59241">q</tspan></text>
    <path
       style="opacity:0.6;color:#000000;fill:none;stroke:#ff0000;stroke-width:2;stroke-miterlimit:4;stroke-dasharray:none;marker:none;visibility:visible;display:inline;overflow:visible;enable-background:accumulate"
       d="M 315.44087,841.87223 C 297.55071,797.17143 289.08359,749.258 290.56986,701.13305 l 584.35531,-88.52876 z"
       id="path4493"
       inkscape:connector-curvature="0"
       sodipodi:nodetypes="cccc" />
    <text
       transform="matrix(0.99921152,0.03970315,-0.03970315,0.99921152,0,0)"
       sodipodi:linespacing="125%"
       id="text4618"
       y="574.99347"
       x="873.77759"
       style="font-size:8.72942734px;font-style:normal;font-variant:normal;font-weight:normal;font-stretch:normal;text-indent:0;text-align:start;text-decoration:none;line-height:125%;letter-spacing:0px;word-spacing:0px;text-transform:none;direction:ltr;block-progression:tb;writing-mode:lr-tb;text-anchor:start;baseline-shift:baseline;color:#000000;fill:#000000;fill-opacity:1;fill-rule:nonzero;stroke:none;marker:none;visibility:visible;display:inline;overflow:visible;enable-background:accumulate;font-family:Ubuntu;-inkscape-font-specification:Sans"
       xml:space="preserve"><tspan
         y="574.99347"
         x="873.77759"
         id="tspan4620"
         sodipodi:role="line">| h |</tspan></text>
    <text
       sodipodi:linespacing="125%"
       id="text4622"
       y="723.26898"
       x="292.39667"
       style="font-size:40px;font-style:normal;font-variant:normal;font-weight:normal;font-stretch:normal;text-align:start;line-height:125%;letter-spacing:0px;word-spacing:0px;text-anchor:start;fill:#000000;fill-opacity:1;stroke:none;font-family:Ubuntu;-inkscape-font-specification:Sans"
       xml:space="preserve"><tspan
         y="723.26898"
         x="292.39667"
         id="tspan4624"
         sodipodi:role="line">s</tspan></text>
    <text
       transform="matrix(0.99959957,0.02829672,-0.02829672,0.99959957,0,0)"
       xml:space="preserve"
       style="font-size:40px;font-style:normal;font-variant:normal;font-weight:normal;font-stretch:normal;text-align:start;line-height:125%;letter-spacing:0px;word-spacing:0px;text-anchor:start;fill:#000000;fill-opacity:1;stroke:none;font-family:Ubuntu;-inkscape-font-specification:Sans"
       x="247.62085"
       y="863.79596"
       id="text4628"
       sodipodi:linespacing="125%"><tspan
         sodipodi:role="line"
         id="tspan4630"
         x="247.62085"
         y="863.79596">v<tspan
   style="font-size:20px;font-style:italic;-inkscape-font-specification:Ubuntu Italic"
   id="tspan4632"
   dx="-3.0304577">p</tspan></tspan></text>
    <path
       style="fill:none;stroke:#000000;stroke-width:1px;stroke-linecap:round;stroke-linejoin:miter;stroke-opacity:1;marker-end:url(#Arrow2Lend)"
       d="M 315.66947,841.31065 308.8144,772.27796"
       id="path4634"
       inkscape:connector-curvature="0"
       sodipodi:nodetypes="cc" />
    <text
       sodipodi:linespacing="125%"
       id="text4636"
       y="756.15857"
       x="317.68689"
       style="font-size:40px;font-style:normal;font-variant:normal;font-weight:normal;font-stretch:normal;text-align:start;line-height:125%;letter-spacing:0px;word-spacing:0px;text-anchor:start;fill:#000000;fill-opacity:1;stroke:none;font-family:Ubuntu;-inkscape-font-specification:Sans"
       xml:space="preserve"
       transform="matrix(0.99959957,0.02829672,-0.02829672,0.99959957,0,0)"><tspan
         y="756.15857"
         x="317.68689"
         id="tspan4638"
         sodipodi:role="line">v<tspan
   id="tspan4640"
   style="font-size:20px;font-style:italic;-inkscape-font-specification:Ubuntu Italic"
   dx="-2.2295146">s</tspan></tspan></text>
    <path
       style="fill:none;stroke:#000000;stroke-width:1px;stroke-linecap:round;stroke-linejoin:miter;stroke-opacity:1;marker-end:url(#Arrow2Lend)"
       d="m 315.71595,841.2403 -58.52571,14.89975"
       id="path4642"
       inkscape:connector-curvature="0"
       sodipodi:nodetypes="cc" />
    <text
       transform="matrix(0.99959957,0.02829672,-0.02829672,0.99959957,0,0)"
       xml:space="preserve"
       style="font-size:40px;font-style:normal;font-variant:normal;font-weight:normal;font-stretch:normal;text-align:start;line-height:125%;letter-spacing:0px;word-spacing:0px;text-anchor:start;fill:#000000;fill-opacity:1;stroke:none;font-family:Ubuntu;-inkscape-font-specification:Sans"
       x="502.19891"
       y="571.12012"
       id="text4644"
       sodipodi:linespacing="125%"><tspan
         sodipodi:role="line"
         id="tspan4646"
         x="502.19891"
         y="571.12012">m</tspan></text>
    <g
       id="g6509"
       transform="translate(35.714285,0)">
      <path
         inkscape:connector-curvature="0"
         id="path4650"
         d="M 457.05219,599.42846 873.08511,472.34066"
         style="fill:none;stroke:#000000;stroke-width:1;stroke-linecap:butt;stroke-linejoin:miter;stroke-miterlimit:4;stroke-opacity:1;stroke-dasharray:1, 2.00000001;stroke-dashoffset:0" />
      <text
         xml:space="preserve"
         style="font-size:8.72942734px;font-style:normal;font-variant:normal;font-weight:normal;font-stretch:normal;text-indent:0;text-align:start;text-decoration:none;line-height:125%;letter-spacing:0px;word-spacing:0px;text-transform:none;direction:ltr;block-progression:tb;writing-mode:lr-tb;text-anchor:start;baseline-shift:baseline;color:#000000;fill:#000000;fill-opacity:1;fill-rule:nonzero;stroke:none;marker:none;visibility:visible;display:inline;overflow:visible;enable-background:accumulate;font-family:Ubuntu;-inkscape-font-specification:Sans"
         x="670.2677"
         y="702.71417"
         id="text4656"
         sodipodi:linespacing="125%"
         transform="matrix(0.95592928,-0.29359704,0.29359704,0.95592928,0,0)"
         inkscape:transform-center-x="-9.6842292"
         inkscape:transform-center-y="-4.8803244"><tspan
           sodipodi:role="line"
           id="tspan4658"
           x="670.2677"
           y="702.71417">| R |</tspan></text>
    </g>
    <g
       id="g5350"
       transform="matrix(0.70364197,0,0,0.70364197,279.38326,341.75809)">
      <path
         style="fill:none;stroke:#000000;stroke-width:1px;stroke-linecap:round;stroke-linejoin:miter;stroke-opacity:1;marker-start:url(#Arrow2Lstart)"
         d="m 947.56296,843.06508 -35.58832,43.40079"
         id="path5332"
         inkscape:connector-curvature="0"
         sodipodi:nodetypes="cc" />
      <path
         sodipodi:nodetypes="cc"
         inkscape:connector-curvature="0"
         id="path5334"
         d="m 987.9201,889.49365 -75.94546,-3.02778"
         style="fill:none;stroke:#000000;stroke-width:1px;stroke-linecap:round;stroke-linejoin:miter;stroke-opacity:1;marker-start:url(#Arrow2Lstart)" />
      <path
         style="fill:none;stroke:#000000;stroke-width:1px;stroke-linecap:round;stroke-linejoin:miter;stroke-opacity:1;marker-start:url(#Arrow2Lstart)"
         d="m 912.20581,806.63651 -0.23117,79.82936"
         id="path5336"
         inkscape:connector-curvature="0"
         sodipodi:nodetypes="cc" />
      <text
         xml:space="preserve"
         style="font-size:40px;font-style:normal;font-variant:normal;font-weight:normal;font-stretch:normal;text-align:start;line-height:125%;letter-spacing:0px;word-spacing:0px;text-anchor:start;fill:#000000;fill-opacity:1;stroke:none;font-family:Ubuntu;-inkscape-font-specification:Sans"
         x="903.64697"
         y="773.8988"
         id="text5338"
         sodipodi:linespacing="125%"
         transform="matrix(0.99959957,0.02829672,-0.02829672,0.99959957,0,0)"><tspan
           sodipodi:role="line"
           x="903.64697"
           y="773.8988"
           id="tspan5340">+z</tspan></text>
      <text
         transform="matrix(0.99959957,0.02829672,-0.02829672,0.99959957,0,0)"
         sodipodi:linespacing="125%"
         id="text5342"
         y="814.30676"
         x="965.52948"
         style="font-size:40px;font-style:normal;font-variant:normal;font-weight:normal;font-stretch:normal;text-align:start;line-height:125%;letter-spacing:0px;word-spacing:0px;text-anchor:start;fill:#000000;fill-opacity:1;stroke:none;font-family:Ubuntu;-inkscape-font-specification:Sans"
         xml:space="preserve"><tspan
           id="tspan5344"
           y="814.30676"
           x="965.52948"
           sodipodi:role="line">+y</tspan></text>
      <text
         xml:space="preserve"
         style="font-size:40px;font-style:normal;font-variant:normal;font-weight:normal;font-stretch:normal;text-align:start;line-height:125%;letter-spacing:0px;word-spacing:0px;text-anchor:start;fill:#000000;fill-opacity:1;stroke:none;font-family:Ubuntu;-inkscape-font-specification:Sans"
         x="1015.7591"
         y="872.19434"
         id="text5346"
         sodipodi:linespacing="125%"
         transform="matrix(0.99959957,0.02829672,-0.02829672,0.99959957,0,0)"><tspan
           sodipodi:role="line"
           x="1015.7591"
           y="872.19434"
           id="tspan5348">+x</tspan></text>
    </g>
    <text
       xml:space="preserve"
       style="font-size:40px;font-style:normal;font-variant:normal;font-weight:normal;font-stretch:normal;text-align:start;line-height:125%;letter-spacing:0px;word-spacing:0px;text-anchor:start;fill:#000000;fill-opacity:1;stroke:none;font-family:Ubuntu;-inkscape-font-specification:Sans"
       x="379.13495"
       y="551.42047"
       id="text5361"
       sodipodi:linespacing="125%"><tspan
         sodipodi:role="line"
         id="tspan5363"
         x="379.13495"
         y="551.42047"
         style="font-style:italic;-inkscape-font-specification:Ubuntu Italic">t</tspan></text>
    <text
       xml:space="preserve"
       style="font-size:8.72942734px;font-style:normal;font-variant:normal;font-weight:normal;font-stretch:normal;text-indent:0;text-align:start;text-decoration:none;line-height:125%;letter-spacing:0px;word-spacing:0px;text-transform:none;direction:ltr;block-progression:tb;writing-mode:lr-tb;text-anchor:start;baseline-shift:baseline;color:#000000;fill:#000000;fill-opacity:1;fill-rule:nonzero;stroke:none;marker:none;visibility:visible;display:inline;overflow:visible;enable-background:accumulate;font-family:Ubuntu;-inkscape-font-specification:Sans"
       x="676.06885"
       y="641.41144"
       id="text6491-8"
       sodipodi:linespacing="125%"
       transform="matrix(0.99508102,-0.09906448,0.09906448,0.99508102,0,0)"
       inkscape:transform-center-x="2.7599051"
       inkscape:transform-center-y="-3.7114158"><tspan
         sodipodi:role="line"
         id="tspan6493-0"
         x="676.06885"
         y="641.41144">L(t) = 0</tspan></text>
    <g
       transform="translate(-20.854258,39.395949)"
       id="g7112">
      <path
         transform="matrix(0.57185261,0,0,0.57185261,288.03265,301.41325)"
         d="m 278.15991,32.486187 c 241.35885,-5.75013 441.68025,185.248473 447.43038,426.607313 5.75013,241.35885 -185.24847,441.68025 -426.60732,447.43038 -5.88152,0.14012 -11.76526,0.1615 -17.64765,0.0641"
         sodipodi:ry="437.14285"
         sodipodi:rx="437.14285"
         sodipodi:cy="469.50504"
         sodipodi:cx="288.57144"
         id="path7114"
         style="opacity:0.6;color:#000000;fill:none;stroke:#000000;stroke-width:1;stroke-linecap:round;stroke-linejoin:miter;stroke-miterlimit:4;stroke-opacity:1;stroke-dasharray:none;stroke-dashoffset:0;marker:none;visibility:visible;display:inline;overflow:visible;enable-background:accumulate"
         sodipodi:type="arc"
         sodipodi:start="4.6885695"
         sodipodi:end="7.8705356"
         sodipodi:open="true" />
    </g>
    <g
       id="g7120"
       transform="matrix(0.82240297,0,0,0.82240297,50.515232,124.44622)">
      <path
         sodipodi:type="arc"
         style="opacity:0.6;color:#000000;fill:none;stroke:#000000;stroke-width:1;stroke-linecap:round;stroke-linejoin:miter;stroke-miterlimit:4;stroke-opacity:1;stroke-dasharray:none;stroke-dashoffset:0;marker:none;visibility:visible;display:inline;overflow:visible;enable-background:accumulate"
         id="path7122"
         sodipodi:cx="288.57144"
         sodipodi:cy="469.50504"
         sodipodi:rx="437.14285"
         sodipodi:ry="437.14285"
         d="M 269.84063,32.763658 A 437.14285,437.14285 0 1 1 266.7528,906.10304"
         transform="matrix(0.57185261,0,0,0.57185261,298.47315,300.18496)"
         sodipodi:start="4.6695276"
         sodipodi:end="7.9039143"
         sodipodi:open="true" />
    </g>
    <g
       transform="matrix(0.60847928,0,0,0.60847928,147.434,217.06711)"
       id="g7124">
      <path
         transform="matrix(0.57185261,0,0,0.57185261,288.03265,301.41325)"
         d="M 279.77686,32.450658 A 437.14285,437.14285 0 0 1 452.12337,874.89946"
         sodipodi:ry="437.14285"
         sodipodi:rx="437.14285"
         sodipodi:cy="469.50504"
         sodipodi:cx="288.57144"
         id="path7126"
         style="opacity:0.6;color:#000000;fill:none;stroke:#000000;stroke-width:1;stroke-linecap:round;stroke-linejoin:miter;stroke-miterlimit:4;stroke-opacity:1;stroke-dasharray:none;stroke-dashoffset:0;marker:none;visibility:visible;display:inline;overflow:visible;enable-background:accumulate"
         sodipodi:type="arc"
         sodipodi:start="4.6922693"
         sodipodi:end="7.4705141"
         sodipodi:open="true" />
    </g>
    <path
       sodipodi:type="arc"
       style="opacity:0.6;color:#000000;fill:#000000;stroke:#000000;stroke-width:2;stroke-linecap:round;stroke-linejoin:round;stroke-miterlimit:4;stroke-opacity:1;stroke-dasharray:none;stroke-dashoffset:0;marker:none;visibility:visible;display:inline;overflow:visible;enable-background:accumulate"
       id="path7128"
       sodipodi:cx="683.92859"
       sodipodi:cy="337.48734"
       sodipodi:rx="7.1428571"
       sodipodi:ry="7.1428571"
       d="m 691.07145,337.48734 a 7.1428571,7.1428571 0 1 1 -14.28572,0 7.1428571,7.1428571 0 1 1 14.28572,0 z"
       transform="matrix(0.47368421,0,0,0.47368421,396.03385,486.07119)" />
    <path
       transform="matrix(0.47368421,0,0,0.47368421,354.96242,486.07119)"
       d="m 691.07145,337.48734 a 7.1428571,7.1428571 0 1 1 -14.28572,0 7.1428571,7.1428571 0 1 1 14.28572,0 z"
       sodipodi:ry="7.1428571"
       sodipodi:rx="7.1428571"
       sodipodi:cy="337.48734"
       sodipodi:cx="683.92859"
       id="path7316"
       style="opacity:0.6;color:#000000;fill:#000000;stroke:#000000;stroke-width:2;stroke-linecap:round;stroke-linejoin:round;stroke-miterlimit:4;stroke-opacity:1;stroke-dasharray:none;stroke-dashoffset:0;marker:none;visibility:visible;display:inline;overflow:visible;enable-background:accumulate"
       sodipodi:type="arc" />
    <path
       sodipodi:type="arc"
       style="opacity:0.6;color:#000000;fill:#000000;stroke:#000000;stroke-width:2;stroke-linecap:round;stroke-linejoin:round;stroke-miterlimit:4;stroke-opacity:1;stroke-dasharray:none;stroke-dashoffset:0;marker:none;visibility:visible;display:inline;overflow:visible;enable-background:accumulate"
       id="path7318"
       sodipodi:cx="683.92859"
       sodipodi:cy="337.48734"
       sodipodi:rx="7.1428571"
       sodipodi:ry="7.1428571"
       d="m 691.07145,337.48734 a 7.1428571,7.1428571 0 1 1 -14.28572,0 7.1428571,7.1428571 0 1 1 14.28572,0 z"
       transform="matrix(0.47368421,0,0,0.47368421,307.64099,478.39262)" />
    <path
       transform="matrix(0.47368421,0,0,0.47368421,244.78385,447.49976)"
       d="m 691.07145,337.48734 a 7.1428571,7.1428571 0 1 1 -14.28572,0 7.1428571,7.1428571 0 1 1 14.28572,0 z"
       sodipodi:ry="7.1428571"
       sodipodi:rx="7.1428571"
       sodipodi:cy="337.48734"
       sodipodi:cx="683.92859"
       id="path7320"
       style="opacity:0.6;color:#000000;fill:#000000;stroke:#000000;stroke-width:2;stroke-linecap:round;stroke-linejoin:round;stroke-miterlimit:4;stroke-opacity:1;stroke-dasharray:none;stroke-dashoffset:0;marker:none;visibility:visible;display:inline;overflow:visible;enable-background:accumulate"
       sodipodi:type="arc" />
    <path
       sodipodi:type="arc"
       style="opacity:0.6;color:#000000;fill:#000000;stroke:#000000;stroke-width:2;stroke-linecap:round;stroke-linejoin:round;stroke-miterlimit:4;stroke-opacity:1;stroke-dasharray:none;stroke-dashoffset:0;marker:none;visibility:visible;display:inline;overflow:visible;enable-background:accumulate"
       id="path7322"
       sodipodi:cx="683.92859"
       sodipodi:cy="337.48734"
       sodipodi:rx="7.1428571"
       sodipodi:ry="7.1428571"
       d="m 691.07145,337.48734 a 7.1428571,7.1428571 0 1 1 -14.28572,0 7.1428571,7.1428571 0 1 1 14.28572,0 z"
       transform="matrix(0.47368421,0,0,0.47368421,109.81447,468.80578)" />
    <path
       transform="matrix(0.47368421,0,0,0.47368421,108.55178,435.47074)"
       d="m 691.07145,337.48734 a 7.1428571,7.1428571 0 1 1 -14.28572,0 7.1428571,7.1428571 0 1 1 14.28572,0 z"
       sodipodi:ry="7.1428571"
       sodipodi:rx="7.1428571"
       sodipodi:cy="337.48734"
       sodipodi:cx="683.92859"
       id="path7324"
       style="opacity:0.6;color:#000000;fill:#000000;stroke:#000000;stroke-width:2;stroke-linecap:round;stroke-linejoin:round;stroke-miterlimit:4;stroke-opacity:1;stroke-dasharray:none;stroke-dashoffset:0;marker:none;visibility:visible;display:inline;overflow:visible;enable-background:accumulate"
       sodipodi:type="arc" />
    <path
       sodipodi:type="arc"
       style="opacity:0.6;color:#000000;fill:#000000;stroke:#000000;stroke-width:2;stroke-linecap:round;stroke-linejoin:round;stroke-miterlimit:4;stroke-opacity:1;stroke-dasharray:none;stroke-dashoffset:0;marker:none;visibility:visible;display:inline;overflow:visible;enable-background:accumulate"
       id="path7326"
       sodipodi:cx="683.92859"
       sodipodi:cy="337.48734"
       sodipodi:rx="7.1428571"
       sodipodi:ry="7.1428571"
       d="m 691.07145,337.48734 a 7.1428571,7.1428571 0 1 1 -14.28572,0 7.1428571,7.1428571 0 1 1 14.28572,0 z"
       transform="matrix(0.47368421,0,0,0.47368421,106.2483,400.1154)" />
    <path
       transform="matrix(0.47368421,0,0,0.47368421,100.945,354.65853)"
       d="m 691.07145,337.48734 a 7.1428571,7.1428571 0 1 1 -14.28572,0 7.1428571,7.1428571 0 1 1 14.28572,0 z"
       sodipodi:ry="7.1428571"
       sodipodi:rx="7.1428571"
       sodipodi:cy="337.48734"
       sodipodi:cx="683.92859"
       id="path7328"
       style="opacity:0.6;color:#000000;fill:#000000;stroke:#000000;stroke-width:2;stroke-linecap:round;stroke-linejoin:round;stroke-miterlimit:4;stroke-opacity:1;stroke-dasharray:none;stroke-dashoffset:0;marker:none;visibility:visible;display:inline;overflow:visible;enable-background:accumulate"
       sodipodi:type="arc" />
    <text
       inkscape:transform-center-y="-3.4539913"
       inkscape:transform-center-x="-1.8409625"
       transform="matrix(0.60945381,0.79282158,-0.79282158,0.60945381,0,0)"
       sodipodi:linespacing="125%"
       id="text7330"
       y="-250.87794"
       x="741.79865"
       style="font-size:8.72942734px;font-style:normal;font-variant:normal;font-weight:normal;font-stretch:normal;text-indent:0;text-align:start;text-decoration:none;line-height:125%;letter-spacing:0px;word-spacing:0px;text-transform:none;direction:ltr;block-progression:tb;writing-mode:lr-tb;text-anchor:start;baseline-shift:baseline;color:#000000;fill:#000000;fill-opacity:1;fill-rule:nonzero;stroke:none;marker:none;visibility:visible;display:inline;overflow:visible;enable-background:accumulate;font-family:Ubuntu;-inkscape-font-specification:Sans"
       xml:space="preserve"><tspan
         y="-250.87794"
         x="741.79865"
         id="tspan7332"
         sodipodi:role="line"
         dy="0 0 0 0 0 0 -1.4285713">rtt(t<tspan
   style="font-size:5px"
   id="tspan7411"
   dy="1.4285713">0</tspan>)</tspan></text>
    <text
       xml:space="preserve"
       style="font-size:8.72942734px;font-style:normal;font-variant:normal;font-weight:normal;font-stretch:normal;text-indent:0;text-align:start;text-decoration:none;line-height:125%;letter-spacing:0px;word-spacing:0px;text-transform:none;direction:ltr;block-progression:tb;writing-mode:lr-tb;text-anchor:start;baseline-shift:baseline;color:#000000;fill:#000000;fill-opacity:1;fill-rule:nonzero;stroke:none;marker:none;visibility:visible;display:inline;overflow:visible;enable-background:accumulate;font-family:Ubuntu;-inkscape-font-specification:Sans"
       x="739.15894"
       y="-224.23936"
       id="text7334"
       sodipodi:linespacing="125%"
       transform="matrix(0.60945381,0.79282158,-0.79282158,0.60945381,0,0)"
       inkscape:transform-center-x="-1.8409625"
       inkscape:transform-center-y="-3.4539913"><tspan
         sodipodi:role="line"
         id="tspan7336"
         x="739.15894"
         y="-224.23936"
         dy="0 0 0 0 0 0 -1.4285713">rtt(t<tspan
   style="font-size:5px"
   id="tspan7409"
   dy="1.4285713">1</tspan>)</tspan></text>
    <text
       inkscape:transform-center-y="-3.4539913"
       inkscape:transform-center-x="-1.8409625"
       transform="matrix(0.60945381,0.79282158,-0.79282158,0.60945381,0,0)"
       sodipodi:linespacing="125%"
       id="text7338"
       y="-190.11511"
       x="728.85364"
       style="font-size:8.72942734px;font-style:normal;font-variant:normal;font-weight:normal;font-stretch:normal;text-indent:0;text-align:start;text-decoration:none;line-height:125%;letter-spacing:0px;word-spacing:0px;text-transform:none;direction:ltr;block-progression:tb;writing-mode:lr-tb;text-anchor:start;baseline-shift:baseline;color:#000000;fill:#000000;fill-opacity:1;fill-rule:nonzero;stroke:none;marker:none;visibility:visible;display:inline;overflow:visible;enable-background:accumulate;font-family:Ubuntu;-inkscape-font-specification:Sans"
       xml:space="preserve"><tspan
         y="-190.11511"
         x="728.85364"
         id="tspan7340"
         sodipodi:role="line"
         dy="0 0 0 0 0 0 -1.4285713">rtt(t<tspan
   style="font-size:5px"
   id="tspan7413"
   dy="1.4285713">2</tspan>)</tspan></text>
    <text
       xml:space="preserve"
       style="font-size:8.72942734px;font-style:normal;font-variant:normal;font-weight:normal;font-stretch:normal;text-indent:0;text-align:start;text-decoration:none;line-height:125%;letter-spacing:0px;word-spacing:0px;text-transform:none;direction:ltr;block-progression:tb;writing-mode:lr-tb;text-anchor:start;baseline-shift:baseline;color:#000000;fill:#000000;fill-opacity:1;fill-rule:nonzero;stroke:none;marker:none;visibility:visible;display:inline;overflow:visible;enable-background:accumulate;font-family:Ubuntu;-inkscape-font-specification:Sans"
       x="703.89288"
       y="-146.87077"
       id="text7342"
       sodipodi:linespacing="125%"
       transform="matrix(0.60945381,0.79282158,-0.79282158,0.60945381,0,0)"
       inkscape:transform-center-x="-1.8409625"
       inkscape:transform-center-y="-3.4539913"><tspan
         sodipodi:role="line"
         id="tspan7344"
         x="703.89288"
         y="-146.87077"
         dy="0 0 0 0 0 0 -1.4285713">rtt(t<tspan
   style="font-size:5px"
   id="tspan7415"
   dy="1.4285713">3</tspan>)</tspan></text>
    <text
       xml:space="preserve"
       style="font-size:8.72942734px;font-style:normal;font-variant:normal;font-weight:normal;font-stretch:normal;text-indent:0;text-align:start;text-decoration:none;line-height:125%;letter-spacing:0px;word-spacing:0px;text-transform:none;direction:ltr;block-progression:tb;writing-mode:lr-tb;text-anchor:start;baseline-shift:baseline;color:#000000;fill:#000000;fill-opacity:1;fill-rule:nonzero;stroke:none;marker:none;visibility:visible;display:inline;overflow:visible;enable-background:accumulate;font-family:Ubuntu;-inkscape-font-specification:Sans"
       x="682.99481"
       y="-733.23895"
       id="text4656-3"
       sodipodi:linespacing="125%"
       transform="matrix(0.29359704,0.95592928,-0.95592928,0.29359704,0,0)"
       inkscape:transform-center-x="-4.8803309"
       inkscape:transform-center-y="9.684212"><tspan
         sodipodi:role="line"
         id="tspan4658-3"
         x="682.99481"
         y="-733.23895">Earth radius</tspan></text>
    <text
       inkscape:transform-center-y="-3.3243452"
       inkscape:transform-center-x="3.1806163"
       transform="matrix(0.97702376,-0.21313041,0.21313041,0.97702376,0,0)"
       sodipodi:linespacing="125%"
       id="text7417"
       y="595.93561"
       x="310.69214"
       style="font-size:8.72942734px;font-style:normal;font-variant:normal;font-weight:normal;font-stretch:normal;text-indent:0;text-align:start;text-decoration:none;line-height:125%;letter-spacing:0px;word-spacing:0px;text-transform:none;direction:ltr;block-progression:tb;writing-mode:lr-tb;text-anchor:start;baseline-shift:baseline;color:#000000;fill:#000000;fill-opacity:1;fill-rule:nonzero;stroke:none;marker:none;visibility:visible;display:inline;overflow:visible;enable-background:accumulate;font-family:Ubuntu;-inkscape-font-specification:Sans"
       xml:space="preserve"><tspan
         dy="0 0"
         y="595.93561"
         x="310.69214"
         id="tspan7419"
         sodipodi:role="line">t<tspan
   dy="1.4285713"
   id="tspan7421"
   style="font-size:5px">3</tspan></tspan></text>
    <text
       xml:space="preserve"
       style="font-size:8.72942734px;font-style:normal;font-variant:normal;font-weight:normal;font-stretch:normal;text-indent:0;text-align:start;text-decoration:none;line-height:125%;letter-spacing:0px;word-spacing:0px;text-transform:none;direction:ltr;block-progression:tb;writing-mode:lr-tb;text-anchor:start;baseline-shift:baseline;color:#000000;fill:#000000;fill-opacity:1;fill-rule:nonzero;stroke:none;marker:none;visibility:visible;display:inline;overflow:visible;enable-background:accumulate;font-family:Ubuntu;-inkscape-font-specification:Sans"
       x="393.18008"
       y="592.51917"
       id="text7423"
       sodipodi:linespacing="125%"
       transform="matrix(0.99731883,-0.07317893,0.07317893,0.99731883,0,0)"
       inkscape:transform-center-x="2.6879438"
       inkscape:transform-center-y="-3.7028557"><tspan
         sodipodi:role="line"
         id="tspan7425"
         x="393.18008"
         y="592.51917"
         dy="0">t<tspan
   style="font-size:5px"
   id="tspan7427"
   dy="0.71428567">2</tspan></tspan></text>
    <text
       inkscape:transform-center-y="-3.7498814"
       inkscape:transform-center-x="2.585475"
       transform="matrix(0.99897788,-0.04520182,0.04520182,0.99897788,0,0)"
       sodipodi:linespacing="125%"
       id="text7429"
       y="616.75891"
       x="411.08795"
       style="font-size:8.72942734px;font-style:normal;font-variant:normal;font-weight:normal;font-stretch:normal;text-indent:0;text-align:start;text-decoration:none;line-height:125%;letter-spacing:0px;word-spacing:0px;text-transform:none;direction:ltr;block-progression:tb;writing-mode:lr-tb;text-anchor:start;baseline-shift:baseline;color:#000000;fill:#000000;fill-opacity:1;fill-rule:nonzero;stroke:none;marker:none;visibility:visible;display:inline;overflow:visible;enable-background:accumulate;font-family:Ubuntu;-inkscape-font-specification:Sans"
       xml:space="preserve"><tspan
         dy="0"
         y="616.75891"
         x="411.08795"
         id="tspan7431"
         sodipodi:role="line">t<tspan
   id="tspan7433"
   style="font-size:5px"
   dy="0.71428567">1</tspan></tspan></text>
    <text
       xml:space="preserve"
       style="font-size:8.72942734px;font-style:normal;font-variant:normal;font-weight:normal;font-stretch:normal;text-indent:0;text-align:start;text-decoration:none;line-height:125%;letter-spacing:0px;word-spacing:0px;text-transform:none;direction:ltr;block-progression:tb;writing-mode:lr-tb;text-anchor:start;baseline-shift:baseline;color:#000000;fill:#000000;fill-opacity:1;fill-rule:nonzero;stroke:none;marker:none;visibility:visible;display:inline;overflow:visible;enable-background:accumulate;font-family:Ubuntu;-inkscape-font-specification:Sans"
       x="431.87088"
       y="636.06378"
       id="text7435"
       sodipodi:linespacing="125%"
       transform="matrix(0.9999229,-0.01241742,0.01241742,0.9999229,0,0)"
       inkscape:transform-center-x="2.4584435"
       inkscape:transform-center-y="-3.8492772"><tspan
         sodipodi:role="line"
         id="tspan7437"
         x="431.87088"
         y="636.06378"
         dy="0">t<tspan
   style="font-size:5px"
   id="tspan7439"
   dy="0.50507629">0</tspan></tspan></text>
    <text
       xml:space="preserve"
       style="font-size:8.72942734px;font-style:normal;font-variant:normal;font-weight:normal;font-stretch:normal;text-indent:0;text-align:start;text-decoration:none;line-height:125%;letter-spacing:0px;word-spacing:0px;text-transform:none;direction:ltr;block-progression:tb;writing-mode:lr-tb;text-anchor:start;baseline-shift:baseline;color:#000000;fill:#000000;fill-opacity:1;fill-rule:nonzero;stroke:none;marker:none;visibility:visible;display:inline;overflow:visible;enable-background:accumulate;font-family:Ubuntu;-inkscape-font-specification:Sans"
       x="169.22348"
       y="893.90521"
       id="text7479"
       sodipodi:linespacing="125%"
       transform="matrix(0.92517385,-0.37954362,0.37954362,0.92517385,0,0)"><tspan
         sodipodi:role="line"
         id="tspan7481"
         x="169.22348"
         y="893.90521">| p |</tspan></text>
  </g>
</svg>
